<?xml version="1.0" encoding="utf-8"?>
<!-- Generator: Adobe Illustrator 16.0.0, SVG Export Plug-In . SVG Version: 6.00 Build 0)  -->
<!DOCTYPE svg PUBLIC "-//W3C//DTD SVG 1.1//EN" "http://www.w3.org/Graphics/SVG/1.1/DTD/svg11.dtd">
<svg version="1.1" id="Layer_1" xmlns="http://www.w3.org/2000/svg" xmlns:xlink="http://www.w3.org/1999/xlink" x="0px" y="0px"
	 width="200px" height="50px" viewBox="0 0 200 50" enable-background="new 0 0 200 50" xml:space="preserve">
<circle fill="#A5A6A5" cx="9.629" cy="38.631" r="2.952"/>
<circle fill="#8A2890" cx="34.949" cy="27.4" r="2.951"/>
<path fill="#A5A6A5" d="M26.106,35.104c-0.018,0.123-0.044,0.242-0.058,0.365c-0.041,0.53-0.121,1.059-0.231,1.581
	c-0.544,2.572-1.908,4.991-4.062,6.834c-0.397,0.339-0.81,0.648-1.235,0.929c-0.033,0.021-0.065,0.043-0.098,0.062
	c-0.171,0.109-0.343,0.216-0.519,0.314c-0.049,0.031-0.099,0.062-0.149,0.088c-0.186,0.104-0.377,0.205-0.567,0.3
	c-0.159,0.073-0.318,0.147-0.48,0.221c-0.033,0.013-0.066,0.028-0.099,0.041c-3.681,1.57-7.924,1.259-11.331-0.836
	c0.893-0.481,1.914-0.694,2.977-0.653c0.318,0.023,0.638,0.028,0.956,0.012c1.575-0.082,3.136-0.664,4.428-1.766
	c0.496-0.429,0.922-0.902,1.276-1.414c1.877-2.701,1.78-6.428-0.458-9.047c-2.237-2.615-5.904-3.293-8.865-1.861
	C7.033,30.546,6.497,30.891,6,31.314c-1.234,1.059-2.035,2.43-2.389,3.896c-0.105,0.438-0.17,0.879-0.195,1.325l-0.001,0.082
	c-0.147,0.971-0.507,1.864-1.079,2.612C0.315,34.408,1.521,28.632,5.712,25.05c0.041-0.036,0.084-0.069,0.125-0.103
	c0.173-0.144,0.35-0.285,0.529-0.417c0.063-0.047,0.125-0.093,0.188-0.137c1.867-1.327,4-2.071,6.163-2.245
	c0.746-0.062,1.494-0.054,2.237,0.021l0.136,0.021c0.085,0,0.167-0.005,0.25-0.007c2.935,0.379,5.745,1.804,7.82,4.231
	C25.305,28.924,26.269,32.048,26.106,35.104z"/>
<path fill="#8A2890" d="M24.621,15.653c0.116-0.045,0.233-0.083,0.346-0.133c0.481-0.229,0.976-0.424,1.483-0.588
	c2.501-0.815,5.279-0.845,7.95,0.099c0.494,0.174,0.966,0.378,1.422,0.606c0.035,0.018,0.071,0.035,0.106,0.053
	c0.179,0.093,0.357,0.19,0.53,0.291c0.051,0.03,0.1,0.057,0.151,0.087c0.184,0.108,0.363,0.225,0.541,0.342
	c0.146,0.099,0.29,0.202,0.431,0.305c0.029,0.021,0.058,0.042,0.086,0.064c3.203,2.401,5.049,6.234,4.941,10.23
	c-0.864-0.532-1.56-1.311-2.053-2.251c-0.138-0.287-0.295-0.566-0.47-0.833c-0.858-1.322-2.142-2.386-3.744-2.951
	c-0.615-0.216-1.241-0.348-1.862-0.401c-3.278-0.273-6.456,1.673-7.604,4.921s0.1,6.761,2.82,8.605
	c0.515,0.352,1.083,0.644,1.699,0.86c1.531,0.541,3.121,0.549,4.568,0.121c0.431-0.129,0.848-0.293,1.247-0.495l0.072-0.041
	c0.915-0.355,1.87-0.492,2.804-0.371c-3.171,4.166-8.775,6.01-13.974,4.169c-0.052-0.018-0.101-0.038-0.15-0.059
	c-0.212-0.077-0.423-0.159-0.626-0.249c-0.071-0.03-0.14-0.062-0.211-0.092c-2.083-0.954-3.795-2.434-5.026-4.217
	c-0.425-0.615-0.793-1.269-1.099-1.949l-0.051-0.129c-0.041-0.07-0.088-0.141-0.131-0.209c-1.14-2.731-1.311-5.879-0.246-8.89
	C19.672,19.436,21.893,17.043,24.621,15.653z"/>
<circle fill="#4F5DA3" cx="10.201" cy="15.246" r="2.951"/>
<path fill="#277DBE" d="M26.106,16.124c-0.018-0.123-0.044-0.244-0.058-0.366c-0.041-0.53-0.121-1.058-0.231-1.579
	c-0.544-2.574-1.908-4.995-4.062-6.837c-0.397-0.338-0.81-0.646-1.235-0.927c-0.033-0.021-0.065-0.043-0.098-0.065
	c-0.171-0.11-0.343-0.212-0.519-0.313c-0.049-0.029-0.099-0.06-0.149-0.088c-0.186-0.104-0.377-0.203-0.567-0.297
	c-0.159-0.078-0.318-0.149-0.48-0.22c-0.033-0.015-0.066-0.029-0.099-0.043c-3.681-1.571-7.924-1.255-11.331,0.836
	C8.17,6.707,9.191,6.92,10.254,6.878c0.318-0.023,0.638-0.027,0.956-0.01c1.575,0.082,3.136,0.664,4.428,1.768
	c0.496,0.425,0.922,0.9,1.276,1.411c1.877,2.703,1.78,6.429-0.458,9.047c-2.237,2.619-5.904,3.294-8.865,1.861
	C7.033,20.681,6.497,20.335,6,19.912c-1.234-1.056-2.035-2.429-2.389-3.896c-0.105-0.437-0.17-0.881-0.195-1.326l-0.001-0.084
	c-0.147-0.969-0.507-1.865-1.079-2.614C0.315,16.819,1.521,22.598,5.712,26.18c0.041,0.033,0.084,0.066,0.125,0.1
	c0.173,0.145,0.35,0.285,0.529,0.419c0.063,0.046,0.125,0.093,0.188,0.136c1.867,1.329,4,2.073,6.163,2.245
	c0.746,0.06,1.494,0.051,2.237-0.022l0.136-0.019c0.085,0,0.167,0.005,0.25,0.008c2.935-0.38,5.745-1.805,7.82-4.233
	C25.305,22.302,26.269,19.182,26.106,16.124z"/>
<g enable-background="new    ">
	<path fill="#277DBE" d="M62.335,10.509h-7.152v19.328H53.47V10.509h-7.152V9.052h16.017V10.509z"/>
	<path fill="#277DBE" d="M71.043,30.137c-1.932,0-3.538-0.714-4.818-2.142c-1.28-1.427-1.92-3.235-1.92-5.424v-0.785
		c0-2.208,0.635-4.04,1.906-5.496s2.81-2.185,4.618-2.185c1.894,0,3.383,0.6,4.468,1.799s1.627,2.798,1.627,4.797v1.456H66.018
		v0.413c0,1.737,0.461,3.19,1.385,4.358c0.923,1.168,2.136,1.752,3.64,1.752c1.065,0,1.975-0.147,2.727-0.442
		c0.751-0.295,1.394-0.719,1.927-1.271l0.728,1.17c-0.581,0.612-1.316,1.098-2.206,1.458C73.329,29.956,72.271,30.137,71.043,30.137
		z M70.829,15.562c-1.266,0-2.327,0.482-3.183,1.445s-1.356,2.171-1.499,3.623l0.029,0.071h9.05v-0.428
		c0-1.338-0.395-2.458-1.185-3.359S72.18,15.562,70.829,15.562z"/>
	<path fill="#277DBE" d="M86.032,28.681c1.132,0,2.131-0.322,2.998-0.967c0.866-0.645,1.299-1.541,1.299-2.688h1.513l0.028,0.086
		c0.047,1.427-0.523,2.621-1.713,3.583c-1.19,0.961-2.565,1.441-4.125,1.441c-2.104,0-3.729-0.721-4.875-2.163
		c-1.147-1.441-1.72-3.295-1.72-5.56v-0.6c0-2.246,0.576-4.092,1.727-5.539c1.151-1.446,2.77-2.17,4.854-2.17
		c1.694,0,3.105,0.5,4.233,1.499c1.127,0.999,1.672,2.312,1.634,3.94l-0.028,0.085h-1.527c0-1.236-0.417-2.225-1.25-2.962
		c-0.833-0.737-1.854-1.106-3.062-1.106c-1.656,0-2.881,0.592-3.676,1.775s-1.192,2.674-1.192,4.471v0.599
		c0,1.825,0.395,3.327,1.185,4.506C83.124,28.092,84.356,28.681,86.032,28.681z"/>
	<path fill="#277DBE" d="M97.166,17.032c0.514-0.923,1.199-1.642,2.056-2.155c0.857-0.515,1.856-0.771,2.998-0.771
		c1.628,0,2.876,0.505,3.747,1.514s1.307,2.574,1.307,4.696v9.521h-1.713v-9.569c0-1.678-0.331-2.882-0.992-3.611
		c-0.662-0.729-1.573-1.095-2.734-1.095c-1.17,0-2.148,0.308-2.933,0.923s-1.363,1.433-1.735,2.453v10.899h-1.713V7.567h1.713
		V17.032z"/>
	<path fill="#277DBE" d="M113.911,28.381h10.278v1.456h-11.991V9.052h1.713V28.381z"/>
	<path fill="#277DBE" d="M126.174,21.886c0-2.274,0.623-4.14,1.869-5.596c1.247-1.456,2.898-2.185,4.954-2.185
		c2.065,0,3.721,0.729,4.968,2.185c1.246,1.456,1.87,3.321,1.87,5.596v0.471c0,2.284-0.621,4.152-1.862,5.604
		c-1.242,1.451-2.892,2.177-4.947,2.177c-2.074,0-3.735-0.726-4.982-2.177c-1.246-1.451-1.869-3.319-1.869-5.604V21.886z
		 M127.887,22.35c0,1.787,0.451,3.289,1.355,4.506s2.166,1.825,3.783,1.825c1.59,0,2.838-0.608,3.748-1.825
		c0.908-1.217,1.363-2.719,1.363-4.506v-0.471c0-1.759-0.457-3.251-1.371-4.478s-2.17-1.84-3.769-1.84s-2.851,0.613-3.755,1.84
		s-1.355,2.719-1.355,4.478V22.35z"/>
	<path fill="#277DBE" d="M142.447,21.886c0-2.274,0.623-4.14,1.87-5.596s2.898-2.185,4.954-2.185c2.064,0,3.721,0.729,4.968,2.185
		c1.246,1.456,1.869,3.321,1.869,5.596v0.471c0,2.284-0.62,4.152-1.862,5.604s-2.891,2.177-4.946,2.177
		c-2.075,0-3.735-0.726-4.982-2.177s-1.87-3.319-1.87-5.604V21.886z M144.16,22.35c0,1.787,0.452,3.289,1.356,4.506
		s2.165,1.825,3.783,1.825c1.589,0,2.838-0.608,3.747-1.825c0.908-1.217,1.363-2.719,1.363-4.506v-0.471
		c0-1.759-0.457-3.251-1.37-4.478c-0.914-1.227-2.17-1.84-3.769-1.84c-1.6,0-2.851,0.613-3.755,1.84s-1.356,2.719-1.356,4.478V22.35
		z"/>
	<path fill="#277DBE" d="M172.111,22.542c0,2.312-0.523,4.157-1.57,5.532s-2.489,2.062-4.325,2.062
		c-1.085,0-2.034-0.205-2.849-0.614c-0.813-0.408-1.478-0.994-1.991-1.756v8.009h-1.713V14.392h1.441l0.215,2.397
		c0.514-0.856,1.178-1.518,1.991-1.984c0.813-0.466,1.772-0.699,2.876-0.699c1.856,0,3.308,0.74,4.354,2.22
		c1.047,1.48,1.57,3.452,1.57,5.917V22.542z M170.398,22.221c0-1.962-0.391-3.562-1.171-4.801c-0.78-1.239-1.923-1.858-3.426-1.858
		c-1.152,0-2.087,0.274-2.806,0.822s-1.259,1.26-1.62,2.136v7.432c0.391,0.848,0.954,1.515,1.691,2.001
		c0.737,0.485,1.658,0.729,2.763,0.729c1.494,0,2.629-0.562,3.404-1.687s1.164-2.615,1.164-4.473V22.221z"/>
	<path fill="#277DBE" d="M181.746,30.137c-1.932,0-3.537-0.714-4.817-2.142c-1.28-1.427-1.92-3.235-1.92-5.424v-0.785
		c0-2.208,0.635-4.04,1.905-5.496s2.811-2.185,4.618-2.185c1.894,0,3.384,0.6,4.469,1.799c1.084,1.199,1.627,2.798,1.627,4.797
		v1.456h-10.906v0.413c0,1.737,0.462,3.19,1.385,4.358s2.137,1.752,3.64,1.752c1.066,0,1.975-0.147,2.727-0.442
		s1.395-0.719,1.928-1.271l0.728,1.17c-0.58,0.612-1.315,1.098-2.205,1.458S182.975,30.137,181.746,30.137z M181.532,15.562
		c-1.266,0-2.327,0.482-3.184,1.445s-1.355,2.171-1.498,3.623l0.028,0.071h9.05v-0.428c0-1.338-0.395-2.458-1.185-3.359
		S182.884,15.562,181.532,15.562z"/>
	<path fill="#277DBE" d="M198.12,15.861l-1.271-0.086c-1.075,0-1.958,0.303-2.647,0.907c-0.69,0.604-1.183,1.435-1.478,2.491v10.663
		h-1.713V14.392h1.498l0.215,2.569v0.171c0.447-0.951,1.047-1.693,1.799-2.227c0.751-0.533,1.646-0.8,2.684-0.8
		c0.219,0,0.431,0.017,0.635,0.05c0.205,0.034,0.374,0.069,0.507,0.107L198.12,15.861z"/>
</g>
<g enable-background="new    ">
	<path fill="#8C8C8C" d="M125.16,43.766l0.01,0.029c-0.062,0.713-0.316,1.273-0.762,1.683c-0.445,0.408-1.043,0.612-1.792,0.612
		c-0.791,0-1.429-0.286-1.914-0.856c-0.485-0.572-0.728-1.312-0.728-2.22v-1.157c0-0.905,0.242-1.645,0.728-2.219
		c0.485-0.575,1.123-0.862,1.914-0.862c0.755,0,1.354,0.2,1.797,0.601s0.694,0.964,0.757,1.689l-0.01,0.029h-0.547
		c-0.078-0.589-0.281-1.04-0.607-1.353c-0.328-0.312-0.791-0.469-1.39-0.469c-0.622,0-1.12,0.24-1.497,0.722
		c-0.375,0.481-0.563,1.099-0.563,1.85v1.166c0,0.761,0.188,1.382,0.563,1.861c0.377,0.479,0.875,0.72,1.497,0.72
		c0.599,0,1.063-0.152,1.392-0.458c0.328-0.305,0.531-0.761,0.605-1.368H125.16z"/>
	<path fill="#8C8C8C" d="M129.857,45.987c-0.039-0.179-0.066-0.334-0.083-0.464s-0.024-0.262-0.024-0.396
		c-0.195,0.276-0.455,0.506-0.781,0.688s-0.691,0.273-1.099,0.273c-0.515,0-0.914-0.137-1.198-0.41
		c-0.285-0.273-0.428-0.64-0.428-1.099c0-0.488,0.211-0.879,0.633-1.172c0.421-0.293,0.99-0.439,1.706-0.439h1.167v-0.654
		c0-0.378-0.121-0.674-0.363-0.889c-0.243-0.215-0.582-0.322-1.019-0.322c-0.407,0-0.745,0.103-1.013,0.308
		c-0.27,0.205-0.403,0.456-0.403,0.752l-0.537-0.005l-0.01-0.029c-0.02-0.394,0.16-0.746,0.54-1.057
		c0.379-0.312,0.861-0.467,1.447-0.467c0.582,0,1.051,0.148,1.406,0.444s0.532,0.721,0.532,1.274v2.598
		c0,0.186,0.011,0.366,0.032,0.542c0.021,0.176,0.056,0.35,0.104,0.522H129.857z M127.938,45.572c0.42,0,0.791-0.099,1.113-0.296
		c0.322-0.196,0.556-0.448,0.698-0.754v-1.104h-1.177c-0.53,0-0.954,0.113-1.272,0.34c-0.316,0.226-0.476,0.507-0.476,0.842
		c0,0.286,0.099,0.52,0.296,0.701C127.317,45.481,127.59,45.572,127.938,45.572z"/>
	<path fill="#8C8C8C" d="M134.32,41.207l-0.435-0.029c-0.368,0-0.67,0.104-0.905,0.31c-0.236,0.207-0.404,0.491-0.506,0.853v3.647
		h-0.586v-5.283h0.513l0.073,0.879v0.059c0.152-0.325,0.357-0.579,0.615-0.762s0.562-0.273,0.918-0.273
		c0.074,0,0.147,0.006,0.217,0.018c0.07,0.011,0.129,0.023,0.174,0.036L134.32,41.207z"/>
	<path fill="#8C8C8C" d="M137.274,46.09c-0.661,0-1.21-0.244-1.647-0.732c-0.438-0.488-0.657-1.106-0.657-1.855v-0.269
		c0-0.755,0.218-1.382,0.651-1.88c0.436-0.498,0.961-0.747,1.58-0.747c0.648,0,1.157,0.205,1.528,0.615s0.557,0.957,0.557,1.641
		v0.498h-3.73v0.142c0,0.594,0.157,1.091,0.474,1.49s0.73,0.6,1.245,0.6c0.364,0,0.675-0.051,0.933-0.151s0.477-0.246,0.659-0.435
		l0.249,0.4c-0.199,0.209-0.45,0.375-0.754,0.499C138.057,46.028,137.694,46.09,137.274,46.09z M137.201,41.104
		c-0.434,0-0.796,0.165-1.089,0.494c-0.293,0.33-0.464,0.742-0.513,1.239l0.01,0.024h3.096v-0.146c0-0.457-0.135-0.841-0.405-1.148
		C138.029,41.259,137.664,41.104,137.201,41.104z"/>
	<path fill="#8C8C8C" d="M142.426,46.09c-0.66,0-1.21-0.244-1.648-0.732c-0.438-0.488-0.656-1.106-0.656-1.855v-0.269
		c0-0.755,0.217-1.382,0.652-1.88c0.434-0.498,0.961-0.747,1.579-0.747c0.647,0,1.157,0.205,1.528,0.615s0.557,0.957,0.557,1.641
		v0.498h-3.73v0.142c0,0.594,0.158,1.091,0.474,1.49s0.731,0.6,1.245,0.6c0.365,0,0.676-0.051,0.933-0.151s0.478-0.246,0.659-0.435
		l0.249,0.4c-0.198,0.209-0.45,0.375-0.755,0.499C143.208,46.028,142.846,46.09,142.426,46.09z M142.353,41.104
		c-0.433,0-0.796,0.165-1.089,0.494c-0.293,0.33-0.464,0.742-0.513,1.239l0.01,0.024h3.096v-0.146c0-0.457-0.136-0.841-0.405-1.148
		C143.182,41.259,142.814,41.104,142.353,41.104z"/>
	<path fill="#8C8C8C" d="M148.026,41.207l-0.435-0.029c-0.367,0-0.67,0.104-0.906,0.31c-0.235,0.207-0.404,0.491-0.505,0.853v3.647
		h-0.586v-5.283h0.513l0.073,0.879v0.059c0.153-0.325,0.358-0.579,0.615-0.762s0.563-0.273,0.918-0.273
		c0.075,0,0.147,0.006,0.218,0.018c0.069,0.011,0.127,0.023,0.173,0.036L148.026,41.207z"/>
	<path fill="#8C8C8C" d="M155.409,44.005h-3.257l-0.732,1.982h-0.605l2.7-7.109h0.552l2.681,7.109h-0.605L155.409,44.005z
		 M152.348,43.482h2.871l-1.416-3.848h-0.029L152.348,43.482z"/>
	<path fill="#8C8C8C" d="M158.192,40.704l0.054,0.923c0.17-0.325,0.398-0.577,0.686-0.755c0.289-0.177,0.629-0.266,1.023-0.266
		c0.572,0,1.01,0.175,1.309,0.525c0.299,0.35,0.449,0.896,0.449,1.638v3.218h-0.586v-3.22c0-0.606-0.113-1.035-0.34-1.286
		c-0.226-0.251-0.547-0.377-0.964-0.377c-0.41,0-0.745,0.108-1.003,0.325c-0.26,0.217-0.445,0.505-0.56,0.863v3.694h-0.586v-5.283
		H158.192z"/>
	<path fill="#8C8C8C" d="M166.586,45.987c-0.039-0.179-0.066-0.334-0.083-0.464s-0.024-0.262-0.024-0.396
		c-0.195,0.276-0.455,0.506-0.781,0.688s-0.691,0.273-1.099,0.273c-0.515,0-0.914-0.137-1.198-0.41
		c-0.285-0.273-0.428-0.64-0.428-1.099c0-0.488,0.211-0.879,0.633-1.172c0.421-0.293,0.99-0.439,1.706-0.439h1.167v-0.654
		c0-0.378-0.121-0.674-0.363-0.889c-0.243-0.215-0.582-0.322-1.019-0.322c-0.407,0-0.745,0.103-1.013,0.308
		c-0.27,0.205-0.403,0.456-0.403,0.752l-0.537-0.005l-0.01-0.029c-0.02-0.394,0.16-0.746,0.54-1.057
		c0.379-0.312,0.861-0.467,1.447-0.467c0.582,0,1.051,0.148,1.406,0.444s0.532,0.721,0.532,1.274v2.598
		c0,0.186,0.011,0.366,0.032,0.542c0.021,0.176,0.056,0.35,0.104,0.522H166.586z M164.667,45.572c0.42,0,0.791-0.099,1.113-0.296
		c0.322-0.196,0.556-0.448,0.698-0.754v-1.104h-1.177c-0.53,0-0.954,0.113-1.272,0.34c-0.316,0.226-0.476,0.507-0.476,0.842
		c0,0.286,0.099,0.52,0.296,0.701C164.046,45.481,164.318,45.572,164.667,45.572z"/>
	<path fill="#8C8C8C" d="M169.271,45.987h-0.581V38.37h0.581V45.987z"/>
	<path fill="#8C8C8C" d="M172.387,44.557l0.186,0.63h0.029l1.597-4.482h0.654l-2.295,6.128c-0.137,0.358-0.313,0.662-0.532,0.913
		s-0.537,0.376-0.957,0.376c-0.068,0-0.151-0.007-0.249-0.022c-0.098-0.014-0.169-0.029-0.215-0.046l0.068-0.488
		c0.039,0.007,0.102,0.014,0.188,0.022c0.086,0.008,0.148,0.012,0.188,0.012c0.254,0,0.457-0.09,0.61-0.271
		c0.153-0.18,0.283-0.412,0.391-0.695l0.278-0.713l-2.041-5.215h0.649L172.387,44.557z"/>
	<path fill="#8C8C8C" d="M176.698,39.352v1.353h1.162v0.479h-1.162v3.442c0,0.345,0.062,0.59,0.188,0.735
		c0.125,0.145,0.291,0.217,0.5,0.217c0.094,0,0.187-0.004,0.275-0.012c0.09-0.009,0.193-0.022,0.311-0.042l0.088,0.435
		c-0.098,0.042-0.217,0.075-0.356,0.098s-0.28,0.034-0.42,0.034c-0.371,0-0.66-0.117-0.866-0.352
		c-0.207-0.234-0.311-0.605-0.311-1.113v-3.442h-0.913v-0.479h0.913v-1.353H176.698z"/>
	<path fill="#8C8C8C" d="M179.755,39.19h-0.581v-0.82h0.581V39.19z M179.755,45.987h-0.581v-5.283h0.581V45.987z"/>
	<path fill="#8C8C8C" d="M183.329,45.592c0.388,0,0.729-0.11,1.025-0.331c0.296-0.22,0.444-0.526,0.444-0.919h0.518l0.01,0.029
		c0.016,0.488-0.18,0.896-0.586,1.226s-0.877,0.493-1.411,0.493c-0.72,0-1.275-0.247-1.667-0.739
		c-0.393-0.494-0.589-1.128-0.589-1.902v-0.205c0-0.769,0.196-1.399,0.591-1.895s0.947-0.742,1.66-0.742
		c0.58,0,1.062,0.171,1.447,0.513c0.387,0.342,0.572,0.791,0.56,1.348l-0.01,0.029h-0.522c0-0.423-0.143-0.761-0.428-1.013
		c-0.284-0.253-0.633-0.379-1.047-0.379c-0.566,0-0.985,0.202-1.258,0.607c-0.271,0.404-0.407,0.914-0.407,1.529v0.204
		c0,0.625,0.136,1.139,0.405,1.542S182.756,45.592,183.329,45.592z"/>
	<path fill="#8C8C8C" d="M189.716,44.642c0-0.246-0.102-0.463-0.306-0.647c-0.203-0.186-0.57-0.336-1.101-0.453
		c-0.632-0.137-1.098-0.317-1.399-0.542c-0.301-0.225-0.451-0.542-0.451-0.952c0-0.403,0.17-0.745,0.51-1.022
		c0.341-0.279,0.791-0.418,1.351-0.418c0.596,0,1.067,0.147,1.416,0.441c0.349,0.295,0.515,0.664,0.498,1.106l-0.01,0.029h-0.542
		c0-0.29-0.123-0.542-0.369-0.757c-0.245-0.215-0.576-0.322-0.993-0.322c-0.427,0-0.746,0.092-0.96,0.274
		c-0.213,0.184-0.319,0.397-0.319,0.644c0,0.243,0.092,0.444,0.276,0.603c0.184,0.159,0.551,0.298,1.101,0.418
		c0.628,0.141,1.099,0.332,1.411,0.575c0.312,0.244,0.469,0.574,0.469,0.992c0,0.441-0.178,0.798-0.535,1.07
		c-0.355,0.272-0.827,0.409-1.413,0.409c-0.642,0-1.146-0.153-1.511-0.459c-0.367-0.306-0.54-0.671-0.521-1.094l0.01-0.029h0.537
		c0.022,0.379,0.179,0.654,0.466,0.826c0.289,0.172,0.628,0.258,1.019,0.258c0.423,0,0.757-0.093,1.001-0.277
		C189.594,45.129,189.716,44.905,189.716,44.642z"/>
</g>
<g enable-background="new    ">
	<path fill="#8C8C8C" d="M172.353,11.314l1.847-9.242h2.844c0.843,0,1.49,0.212,1.943,0.635c0.452,0.424,0.596,1.046,0.432,1.868
		c-0.09,0.436-0.284,0.811-0.584,1.124c-0.301,0.313-0.669,0.546-1.105,0.698c0.496,0.118,0.848,0.393,1.058,0.821
		c0.209,0.43,0.257,0.926,0.143,1.488c-0.183,0.901-0.565,1.561-1.149,1.979s-1.324,0.628-2.221,0.628H172.353z M174.441,6.985
		l-0.667,3.345h1.98c0.478,0,0.896-0.142,1.254-0.427c0.357-0.284,0.589-0.68,0.694-1.186c0.11-0.573,0.08-1.005-0.092-1.296
		c-0.171-0.291-0.506-0.437-1.006-0.437H174.441z M174.638,6.002h1.872c0.381,0,0.736-0.131,1.063-0.391
		c0.328-0.261,0.536-0.615,0.626-1.063c0.105-0.529,0.043-0.91-0.188-1.143s-0.619-0.349-1.165-0.349h-1.618L174.638,6.002z"/>
	<path fill="#8C8C8C" d="M182.719,11.447c-0.863,0-1.517-0.32-1.959-0.961c-0.441-0.642-0.582-1.466-0.422-2.473l0.045-0.279
		c0.16-1.016,0.561-1.839,1.203-2.469c0.641-0.631,1.334-0.946,2.078-0.946c0.842,0,1.445,0.282,1.809,0.846
		c0.364,0.563,0.475,1.308,0.33,2.231l-0.127,0.782h-4.139c-0.093,0.698-0.027,1.254,0.193,1.667
		c0.223,0.412,0.603,0.618,1.141,0.618c0.372,0,0.721-0.062,1.047-0.187c0.326-0.124,0.609-0.287,0.851-0.489l0.349,0.814
		c-0.258,0.241-0.588,0.442-0.99,0.604C183.726,11.367,183.256,11.447,182.719,11.447z M183.512,5.303
		c-0.355,0-0.699,0.178-1.031,0.533s-0.57,0.796-0.715,1.32l0.02,0.039h2.824l0.025-0.166c0.081-0.512,0.032-0.928-0.146-1.247
		S183.986,5.303,183.512,5.303z"/>
	<path fill="#8C8C8C" d="M189.771,2.789l-0.337,1.657h1.188l-0.184,0.927h-1.188l-0.832,4.17c-0.071,0.344-0.061,0.575,0.032,0.695
		c0.093,0.121,0.243,0.182,0.45,0.182c0.098,0,0.215-0.01,0.353-0.029c0.138-0.019,0.247-0.039,0.327-0.061l-0.006,0.857
		c-0.123,0.076-0.298,0.139-0.524,0.188c-0.226,0.049-0.449,0.072-0.669,0.072c-0.445,0-0.787-0.156-1.025-0.469
		c-0.239-0.313-0.293-0.792-0.162-1.436l0.832-4.17h-1.004l0.185-0.927h1.003l0.336-1.657H189.771z"/>
	<path fill="#8C8C8C" d="M194.689,11.314c0-0.207,0.005-0.378,0.014-0.511c0.008-0.134,0.023-0.271,0.044-0.409
		c-0.284,0.3-0.608,0.551-0.975,0.752s-0.733,0.301-1.101,0.301c-0.627,0-1.089-0.187-1.388-0.562
		c-0.298-0.374-0.382-0.875-0.251-1.501c0.136-0.698,0.479-1.222,1.032-1.571c0.552-0.349,1.26-0.523,2.123-0.523h1.175l0.133-0.679
		c0.084-0.428,0.038-0.753-0.14-0.975c-0.178-0.223-0.474-0.334-0.889-0.334c-0.355,0-0.677,0.105-0.965,0.314
		c-0.288,0.21-0.459,0.454-0.515,0.733h-1.161l-0.013-0.038c0.084-0.529,0.402-0.993,0.952-1.394c0.55-0.399,1.206-0.6,1.968-0.6
		c0.682,0,1.22,0.202,1.615,0.606c0.396,0.404,0.521,0.97,0.378,1.697l-0.66,3.308c-0.056,0.258-0.093,0.497-0.114,0.718
		c-0.021,0.22-0.021,0.441,0,0.666H194.689z M193.064,10.4c0.344,0,0.692-0.1,1.048-0.299c0.355-0.198,0.63-0.434,0.825-0.704
		l0.254-1.263h-1.213c-0.418,0-0.795,0.129-1.129,0.387c-0.335,0.258-0.533,0.555-0.598,0.889c-0.067,0.326-0.035,0.572,0.096,0.739
		S192.718,10.4,193.064,10.4z"/>
</g>
</svg>
