<?xml version="1.0" encoding="utf-8"?>
<!-- Generator: Adobe Illustrator 16.0.0, SVG Export Plug-In . SVG Version: 6.00 Build 0)  -->
<!DOCTYPE svg PUBLIC "-//W3C//DTD SVG 1.1//EN" "http://www.w3.org/Graphics/SVG/1.1/DTD/svg11.dtd">
<svg version="1.1" id="Layer_1" xmlns="http://www.w3.org/2000/svg" xmlns:xlink="http://www.w3.org/1999/xlink" x="0px" y="0px"
	 width="182.923px" height="27.93px" viewBox="0 0 182.923 27.93" enable-background="new 0 0 182.923 27.93" xml:space="preserve">
<circle fill="#A5A6A5" cx="5.431" cy="22.534" r="1.943"/>
<circle fill="#8A2890" cx="22.098" cy="15.141" r="1.942"/>
<path fill="#A5A6A5" d="M16.276,20.211c-0.012,0.081-0.029,0.159-0.038,0.24c-0.027,0.35-0.08,0.697-0.152,1.041
	c-0.358,1.693-1.256,3.286-2.674,4.499c-0.262,0.223-0.533,0.427-0.813,0.611c-0.022,0.014-0.043,0.028-0.064,0.041
	c-0.113,0.071-0.226,0.142-0.342,0.207c-0.032,0.019-0.065,0.04-0.098,0.058c-0.123,0.068-0.248,0.135-0.373,0.197
	c-0.105,0.048-0.209,0.097-0.316,0.146c-0.022,0.008-0.043,0.019-0.065,0.026c-2.423,1.034-5.216,0.829-7.458-0.55
	c0.588-0.317,1.26-0.457,1.959-0.43c0.209,0.015,0.42,0.019,0.629,0.008c1.037-0.053,2.064-0.437,2.915-1.163
	c0.326-0.282,0.606-0.594,0.84-0.931c1.235-1.777,1.171-4.23-0.302-5.955c-1.473-1.722-3.886-2.167-5.835-1.225
	c-0.367,0.179-0.72,0.406-1.047,0.685c-0.812,0.697-1.339,1.6-1.572,2.564C1.4,20.57,1.357,20.859,1.341,21.153l0,0.055
	c-0.097,0.639-0.334,1.227-0.71,1.719c-1.331-3.173-0.537-6.977,2.222-9.334c0.027-0.023,0.055-0.045,0.083-0.068
	c0.114-0.096,0.23-0.188,0.348-0.274c0.042-0.031,0.083-0.061,0.124-0.09c1.229-0.874,2.633-1.363,4.057-1.478
	c0.491-0.041,0.984-0.036,1.473,0.014l0.089,0.014c0.056,0,0.11-0.003,0.165-0.004c1.932,0.25,3.782,1.188,5.148,2.785
	C15.75,16.144,16.384,18.2,16.276,20.211z"/>
<path fill="#8A2890" d="M15.299,7.408c0.077-0.03,0.153-0.055,0.228-0.087c0.317-0.151,0.642-0.279,0.976-0.387
	c1.646-0.537,3.475-0.557,5.233,0.065c0.326,0.114,0.636,0.249,0.936,0.399c0.023,0.012,0.047,0.023,0.07,0.035
	c0.118,0.062,0.235,0.125,0.349,0.191c0.033,0.02,0.066,0.038,0.099,0.057c0.121,0.071,0.239,0.148,0.356,0.226
	c0.096,0.065,0.191,0.133,0.284,0.201c0.019,0.014,0.038,0.027,0.057,0.042c2.108,1.581,3.323,4.104,3.252,6.734
	c-0.569-0.351-1.027-0.862-1.352-1.481c-0.091-0.189-0.194-0.373-0.31-0.549c-0.564-0.87-1.41-1.57-2.464-1.942
	c-0.405-0.143-0.817-0.229-1.226-0.264c-2.158-0.18-4.25,1.101-5.005,3.239c-0.755,2.138,0.066,4.45,1.856,5.665
	c0.339,0.231,0.713,0.423,1.119,0.564c1.008,0.356,2.055,0.361,3.007,0.08c0.284-0.085,0.558-0.193,0.821-0.326l0.048-0.027
	c0.602-0.232,1.23-0.323,1.845-0.244c-2.087,2.742-5.776,3.958-9.198,2.744c-0.034-0.011-0.066-0.023-0.099-0.038
	c-0.14-0.051-0.278-0.104-0.412-0.164c-0.047-0.02-0.092-0.041-0.139-0.062c-1.371-0.628-2.498-1.603-3.308-2.776
	c-0.28-0.404-0.522-0.835-0.724-1.282l-0.033-0.085c-0.027-0.045-0.058-0.093-0.086-0.138c-0.75-1.797-0.863-3.87-0.162-5.852
	C12.041,9.898,13.503,8.323,15.299,7.408z"/>
<circle fill="#277DBE" cx="5.807" cy="7.14" r="1.943"/>
<path fill="#277DBE" d="M16.276,7.718c-0.012-0.081-0.029-0.161-0.038-0.241c-0.027-0.349-0.08-0.696-0.152-1.039
	c-0.358-1.694-1.256-3.288-2.674-4.5c-0.262-0.223-0.533-0.425-0.813-0.61c-0.022-0.014-0.043-0.028-0.064-0.043
	c-0.113-0.072-0.226-0.14-0.342-0.206c-0.032-0.02-0.065-0.04-0.098-0.058c-0.123-0.069-0.248-0.134-0.373-0.196
	c-0.105-0.051-0.209-0.098-0.316-0.145c-0.022-0.01-0.043-0.019-0.065-0.028C8.918-0.383,6.125-0.175,3.882,1.202
	c0.588,0.317,1.26,0.457,1.959,0.43c0.209-0.015,0.42-0.018,0.629-0.007c1.037,0.054,2.064,0.438,2.915,1.164
	c0.326,0.28,0.606,0.593,0.84,0.929c1.235,1.779,1.171,4.232-0.302,5.955c-1.473,1.724-3.886,2.168-5.835,1.225
	c-0.367-0.18-0.72-0.408-1.047-0.687C2.229,9.516,1.702,8.612,1.469,7.647C1.4,7.359,1.357,7.067,1.341,6.774l0-0.055
	C1.243,6.081,1.006,5.491,0.63,4.998c-1.331,3.177-0.537,6.981,2.222,9.339c0.027,0.022,0.055,0.044,0.083,0.067
	c0.114,0.095,0.23,0.187,0.348,0.275c0.042,0.03,0.083,0.062,0.124,0.089c1.229,0.875,2.633,1.365,4.057,1.479
	c0.491,0.04,0.984,0.033,1.473-0.014l0.089-0.014c0.056,0,0.11,0.003,0.165,0.005c1.932-0.25,3.782-1.188,5.148-2.786
	C15.75,11.784,16.384,9.731,16.276,7.718z"/>
<g enable-background="new    ">
	<path fill="#277DBE" d="M46.909,1.942h-7.152V21.27h-1.712V1.942h-7.152V0.485H46.91L46.909,1.942L46.909,1.942z"/>
	<path fill="#277DBE" d="M55.617,21.57c-1.932,0-3.538-0.714-4.818-2.142c-1.28-1.427-1.92-3.235-1.92-5.425v-0.784
		c0-2.208,0.635-4.04,1.906-5.496s2.81-2.185,4.618-2.185c1.894,0,3.383,0.6,4.468,1.799c1.085,1.199,1.627,2.798,1.627,4.797v1.456
		H50.593v0.413c0,1.736,0.461,3.189,1.385,4.357c0.923,1.168,2.136,1.752,3.64,1.752c1.065,0,1.975-0.146,2.727-0.44
		c0.751-0.296,1.394-0.72,1.927-1.271L61,19.572c-0.581,0.611-1.316,1.098-2.206,1.457C57.904,21.389,56.845,21.57,55.617,21.57z
		 M55.403,6.995c-1.266,0-2.327,0.482-3.183,1.445s-1.356,2.171-1.499,3.623l0.029,0.071h9.05v-0.428
		c0-1.338-0.395-2.458-1.185-3.359S56.755,6.995,55.403,6.995z"/>
	<path fill="#277DBE" d="M70.606,20.115c1.132,0,2.131-0.322,2.998-0.968c0.866-0.646,1.299-1.541,1.299-2.688h1.513l0.028,0.086
		c0.047,1.428-0.523,2.621-1.713,3.584c-1.19,0.961-2.565,1.439-4.125,1.439c-2.104,0-3.729-0.721-4.875-2.162
		c-1.147-1.44-1.72-3.296-1.72-5.561v-0.6c0-2.246,0.576-4.093,1.727-5.54c1.151-1.446,2.77-2.17,4.854-2.17
		c1.694,0,3.105,0.5,4.233,1.499c1.127,0.999,1.672,2.312,1.634,3.94l-0.028,0.085h-1.527c0-1.236-0.417-2.225-1.25-2.962
		c-0.833-0.737-1.854-1.106-3.062-1.106c-1.656,0-2.881,0.592-3.676,1.775c-0.795,1.183-1.192,2.674-1.192,4.471v0.6
		c0,1.824,0.395,3.326,1.185,4.506C67.699,19.525,68.931,20.115,70.606,20.115z"/>
	<path fill="#277DBE" d="M81.741,8.465c0.514-0.923,1.199-1.642,2.056-2.155c0.857-0.515,1.856-0.771,2.999-0.771
		c1.627,0,2.877,0.505,3.747,1.514c0.871,1.009,1.306,2.574,1.306,4.696v9.521h-1.713v-9.569c0-1.678-0.33-2.882-0.992-3.61
		c-0.659-0.729-1.571-1.095-2.731-1.095c-1.171,0-2.148,0.308-2.934,0.923c-0.786,0.615-1.363,1.433-1.735,2.453V21.27H80.03V-1
		h1.713L81.741,8.465L81.741,8.465z"/>
	<path fill="#277DBE" d="M98.485,19.814h10.279v1.456H96.772V0.485h1.713V19.814z"/>
	<path fill="#277DBE" d="M110.748,13.319c0-2.274,0.624-4.14,1.87-5.596s2.898-2.185,4.953-2.185c2.064,0,3.721,0.729,4.969,2.185
		c1.246,1.456,1.869,3.321,1.869,5.596v0.472c0,2.283-0.621,4.151-1.861,5.604c-1.242,1.451-2.893,2.178-4.947,2.178
		c-2.073,0-3.734-0.727-4.98-2.178s-1.87-3.318-1.87-5.604L110.748,13.319L110.748,13.319z M112.462,13.783
		c0,1.787,0.451,3.289,1.355,4.506c0.904,1.218,2.165,1.826,3.783,1.826c1.589,0,2.838-0.608,3.746-1.826
		c0.91-1.217,1.362-2.719,1.362-4.506v-0.471c0-1.759-0.457-3.251-1.368-4.478c-0.914-1.227-2.17-1.84-3.771-1.84
		c-1.6,0-2.852,0.613-3.754,1.84c-0.904,1.227-1.354,2.719-1.354,4.478V13.783L112.462,13.783z"/>
	<path fill="#277DBE" d="M127.022,13.319c0-2.274,0.623-4.14,1.869-5.596s2.896-2.185,4.953-2.185c2.064,0,3.722,0.729,4.969,2.185
		c1.246,1.456,1.869,3.321,1.869,5.596v0.472c0,2.283-0.621,4.151-1.861,5.604c-1.242,1.451-2.893,2.178-4.947,2.178
		c-2.074,0-3.734-0.727-4.982-2.178c-1.246-1.451-1.867-3.318-1.867-5.604L127.022,13.319L127.022,13.319z M128.735,13.783
		c0,1.787,0.451,3.289,1.355,4.506c0.902,1.218,2.166,1.826,3.781,1.826c1.592,0,2.838-0.608,3.748-1.826
		c0.908-1.217,1.363-2.719,1.363-4.506v-0.471c0-1.759-0.457-3.251-1.371-4.478s-2.17-1.84-3.77-1.84s-2.852,0.613-3.756,1.84
		s-1.354,2.719-1.354,4.478L128.735,13.783L128.735,13.783z"/>
	<path fill="#277DBE" d="M156.685,13.975c0,2.312-0.522,4.157-1.568,5.532c-1.048,1.375-2.49,2.062-4.326,2.062
		c-1.085,0-2.033-0.204-2.848-0.614c-0.814-0.406-1.479-0.994-1.992-1.756v8.01h-1.713V5.825h1.441l0.215,2.397
		c0.514-0.856,1.178-1.518,1.992-1.984c0.812-0.466,1.771-0.699,2.875-0.699c1.854,0,3.308,0.74,4.354,2.22s1.568,3.451,1.568,5.917
		v0.299H156.685z M154.972,13.654c0-1.962-0.391-3.562-1.17-4.801c-0.781-1.239-1.922-1.858-3.428-1.858
		c-1.15,0-2.086,0.274-2.805,0.822c-0.721,0.548-1.26,1.26-1.621,2.136v7.432c0.393,0.848,0.955,1.515,1.691,2.001
		c0.736,0.484,1.658,0.729,2.764,0.729c1.492,0,2.629-0.562,3.402-1.687c0.775-1.125,1.164-2.615,1.164-4.474v-0.301H154.972z"/>
	<path fill="#277DBE" d="M166.321,21.57c-1.932,0-3.537-0.714-4.816-2.142c-1.281-1.427-1.921-3.235-1.921-5.425v-0.784
		c0-2.208,0.636-4.04,1.905-5.496c1.271-1.456,2.811-2.185,4.618-2.185c1.894,0,3.384,0.6,4.468,1.799
		c1.086,1.199,1.628,2.798,1.628,4.797v1.456h-10.905v0.413c0,1.736,0.461,3.189,1.385,4.357c0.922,1.168,2.137,1.752,3.641,1.752
		c1.064,0,1.977-0.146,2.729-0.44c0.752-0.296,1.395-0.72,1.928-1.271l0.729,1.171c-0.581,0.611-1.316,1.098-2.206,1.457
		C168.612,21.389,167.55,21.57,166.321,21.57z M166.107,6.995c-1.267,0-2.327,0.482-3.183,1.445c-0.857,0.963-1.357,2.171-1.5,3.623
		l0.027,0.071h9.053v-0.428c0-1.338-0.396-2.458-1.188-3.359S167.459,6.995,166.107,6.995z"/>
	<path fill="#277DBE" d="M182.695,7.294l-1.271-0.086c-1.076,0-1.959,0.303-2.648,0.907s-1.184,1.435-1.479,2.491v10.663h-1.714
		V5.825h1.499l0.215,2.569v0.171c0.446-0.951,1.047-1.693,1.799-2.227c0.752-0.534,1.646-0.8,2.685-0.8
		c0.22,0,0.431,0.017,0.636,0.05c0.204,0.034,0.373,0.069,0.506,0.107L182.695,7.294z"/>
</g>
</svg>
