<?xml version="1.0" encoding="utf-8"?>
<!-- Generator: Adobe Illustrator 16.0.0, SVG Export Plug-In . SVG Version: 6.00 Build 0)  -->
<!DOCTYPE svg PUBLIC "-//W3C//DTD SVG 1.1//EN" "http://www.w3.org/Graphics/SVG/1.1/DTD/svg11.dtd">
<svg version="1.1" id="Layer_1" xmlns="http://www.w3.org/2000/svg" xmlns:xlink="http://www.w3.org/1999/xlink" x="0px" y="0px"
	 width="163.576px" height="27.93px" viewBox="0 0 163.576 27.93" enable-background="new 0 0 163.576 27.93" xml:space="preserve">
<circle fill="#A5A6A5" cx="5.431" cy="22.534" r="1.943"/>
<circle fill="#8A2890" cx="22.098" cy="15.141" r="1.942"/>
<path fill="#A5A6A5" d="M16.276,20.211c-0.012,0.081-0.029,0.159-0.038,0.24c-0.027,0.35-0.08,0.697-0.152,1.041
	c-0.358,1.693-1.256,3.286-2.674,4.499c-0.262,0.223-0.533,0.427-0.813,0.611c-0.022,0.014-0.043,0.028-0.064,0.041
	c-0.113,0.071-0.226,0.142-0.342,0.207c-0.032,0.019-0.065,0.04-0.098,0.058c-0.123,0.068-0.248,0.135-0.373,0.197
	c-0.105,0.048-0.209,0.097-0.316,0.146c-0.022,0.008-0.043,0.019-0.065,0.026c-2.423,1.034-5.216,0.829-7.458-0.55
	c0.588-0.317,1.26-0.457,1.959-0.43c0.209,0.015,0.42,0.019,0.629,0.008c1.037-0.053,2.064-0.437,2.915-1.163
	c0.326-0.282,0.606-0.594,0.84-0.931c1.235-1.777,1.171-4.23-0.302-5.955c-1.473-1.722-3.886-2.167-5.835-1.225
	c-0.367,0.179-0.72,0.406-1.047,0.685c-0.812,0.697-1.339,1.6-1.572,2.564C1.4,20.57,1.357,20.859,1.341,21.153l0,0.055
	c-0.097,0.639-0.334,1.227-0.71,1.719c-1.331-3.173-0.537-6.977,2.222-9.334c0.027-0.023,0.055-0.045,0.083-0.068
	c0.114-0.096,0.23-0.188,0.348-0.274c0.042-0.031,0.083-0.061,0.124-0.09c1.229-0.874,2.633-1.363,4.057-1.478
	c0.491-0.041,0.984-0.036,1.473,0.014l0.089,0.014c0.056,0,0.11-0.003,0.165-0.004c1.932,0.25,3.782,1.188,5.148,2.785
	C15.75,16.144,16.384,18.2,16.276,20.211z"/>
<path fill="#8A2890" d="M15.299,7.408c0.077-0.03,0.153-0.055,0.228-0.087c0.317-0.151,0.642-0.279,0.976-0.387
	c1.646-0.537,3.475-0.557,5.233,0.065c0.326,0.114,0.636,0.249,0.936,0.399c0.023,0.012,0.047,0.023,0.07,0.035
	c0.118,0.062,0.235,0.125,0.349,0.191c0.033,0.02,0.066,0.038,0.099,0.057c0.121,0.071,0.239,0.148,0.356,0.226
	c0.096,0.065,0.191,0.133,0.284,0.201c0.019,0.014,0.038,0.027,0.057,0.042c2.108,1.581,3.323,4.104,3.252,6.734
	c-0.569-0.351-1.027-0.862-1.352-1.481c-0.091-0.189-0.194-0.373-0.31-0.549c-0.564-0.87-1.41-1.57-2.464-1.942
	c-0.405-0.143-0.817-0.229-1.226-0.264c-2.158-0.18-4.25,1.101-5.005,3.239c-0.755,2.138,0.066,4.45,1.856,5.665
	c0.339,0.231,0.713,0.423,1.119,0.564c1.008,0.356,2.055,0.361,3.007,0.08c0.284-0.085,0.558-0.193,0.821-0.326l0.048-0.027
	c0.602-0.232,1.23-0.323,1.845-0.244c-2.087,2.742-5.776,3.958-9.198,2.744c-0.034-0.011-0.066-0.023-0.099-0.038
	c-0.14-0.051-0.278-0.104-0.412-0.164c-0.047-0.02-0.092-0.041-0.139-0.062c-1.371-0.628-2.498-1.603-3.308-2.776
	c-0.28-0.404-0.522-0.835-0.724-1.282l-0.033-0.085c-0.027-0.045-0.058-0.093-0.086-0.138c-0.75-1.797-0.863-3.87-0.162-5.852
	C12.041,9.898,13.503,8.323,15.299,7.408z"/>
<circle fill="#277DBE" cx="5.807" cy="7.14" r="1.943"/>
<path fill="#277DBE" d="M16.276,7.718c-0.012-0.081-0.029-0.161-0.038-0.241c-0.027-0.349-0.08-0.696-0.152-1.039
	c-0.358-1.694-1.256-3.288-2.674-4.5c-0.262-0.223-0.533-0.425-0.813-0.61c-0.022-0.014-0.043-0.028-0.064-0.043
	c-0.113-0.072-0.226-0.14-0.342-0.206c-0.032-0.02-0.065-0.04-0.098-0.058c-0.123-0.069-0.248-0.134-0.373-0.196
	c-0.105-0.051-0.209-0.098-0.316-0.145c-0.022-0.01-0.043-0.019-0.065-0.028C8.918-0.383,6.125-0.175,3.882,1.202
	c0.588,0.317,1.26,0.457,1.959,0.43c0.209-0.015,0.42-0.018,0.629-0.007c1.037,0.054,2.064,0.438,2.915,1.164
	c0.326,0.28,0.606,0.593,0.84,0.929c1.235,1.779,1.171,4.232-0.302,5.955c-1.473,1.724-3.886,2.168-5.835,1.225
	c-0.367-0.18-0.72-0.408-1.047-0.687C2.229,9.516,1.702,8.612,1.469,7.647C1.4,7.359,1.357,7.067,1.341,6.774l0-0.055
	C1.243,6.081,1.006,5.491,0.63,4.998c-1.331,3.177-0.537,6.981,2.222,9.339c0.027,0.022,0.055,0.044,0.083,0.067
	c0.114,0.095,0.23,0.187,0.348,0.275c0.042,0.03,0.083,0.062,0.124,0.089c1.229,0.875,2.633,1.365,4.057,1.479
	c0.491,0.04,0.984,0.033,1.473-0.014l0.089-0.014c0.056,0,0.11,0.003,0.165,0.005c1.932-0.25,3.782-1.188,5.148-2.786
	C15.75,11.784,16.384,9.731,16.276,7.718z"/>
<g enable-background="new    ">
	<path fill="#277DBE" d="M43.487,4.109h-6.314v17.065h-1.512V4.109h-6.315V2.823h14.142L43.487,4.109L43.487,4.109z"/>
	<path fill="#277DBE" d="M51.176,21.439c-1.706,0-3.124-0.63-4.254-1.891c-1.13-1.26-1.695-2.857-1.695-4.79v-0.692
		c0-1.95,0.561-3.567,1.683-4.853c1.122-1.286,2.481-1.929,4.077-1.929c1.672,0,2.987,0.53,3.945,1.588s1.437,2.471,1.437,4.236
		v1.285H46.74v0.365c0,1.533,0.407,2.816,1.223,3.847c0.815,1.031,1.886,1.547,3.214,1.547c0.94,0,1.744-0.128,2.408-0.389
		c0.663-0.261,1.23-0.635,1.701-1.123l0.643,1.034c-0.513,0.54-1.162,0.969-1.948,1.287C53.195,21.279,52.26,21.439,51.176,21.439z
		 M50.987,8.571c-1.118,0-2.055,0.425-2.811,1.276c-0.755,0.85-1.197,1.917-1.323,3.199l0.025,0.063h7.991V12.73
		c0-1.182-0.349-2.17-1.046-2.966C53.125,8.969,52.181,8.571,50.987,8.571z"/>
	<path fill="#277DBE" d="M64.41,20.154c0.999,0,1.881-0.285,2.646-0.854c0.765-0.57,1.147-1.36,1.147-2.374h1.336l0.025,0.076
		c0.042,1.261-0.462,2.314-1.512,3.165c-1.051,0.848-2.265,1.271-3.642,1.271c-1.858,0-3.293-0.637-4.304-1.909
		c-1.013-1.272-1.519-2.91-1.519-4.91v-0.529c0-1.983,0.509-3.614,1.525-4.891c1.016-1.276,2.446-1.916,4.286-1.916
		c1.496,0,2.742,0.441,3.737,1.323c0.995,0.882,1.476,2.042,1.442,3.479l-0.024,0.075h-1.348c0-1.091-0.368-1.964-1.104-2.615
		c-0.735-0.651-1.637-0.977-2.704-0.977c-1.462,0-2.543,0.522-3.246,1.567s-1.053,2.361-1.053,3.947v0.529
		c0,1.611,0.349,2.937,1.046,3.979C61.843,19.634,62.931,20.154,64.41,20.154z"/>
	<path fill="#277DBE" d="M74.241,9.869c0.454-0.815,1.059-1.45,1.815-1.903c0.756-0.455,1.639-0.681,2.647-0.681
		c1.436,0,2.54,0.446,3.308,1.337c0.769,0.891,1.153,2.272,1.153,4.146v8.406h-1.512v-8.449c0-1.481-0.292-2.545-0.876-3.188
		c-0.582-0.644-1.388-0.967-2.412-0.967c-1.034,0-1.896,0.272-2.591,0.815c-0.693,0.543-1.203,1.265-1.532,2.166v9.623H72.73V1.512
		h1.512L74.241,9.869L74.241,9.869z"/>
	<path fill="#277DBE" d="M89.025,19.889H98.1v1.286H87.512V2.823h1.513V19.889z"/>
	<path fill="#277DBE" d="M99.852,14.154c0-2.008,0.551-3.655,1.65-4.941c1.102-1.286,2.561-1.929,4.375-1.929
		c1.822,0,3.283,0.644,4.387,1.929c1.1,1.286,1.65,2.933,1.65,4.941v0.416c0,2.016-0.549,3.666-1.645,4.948
		c-1.096,1.281-2.553,1.923-4.367,1.923c-1.83,0-3.297-0.642-4.398-1.923c-1.099-1.281-1.651-2.93-1.651-4.948L99.852,14.154
		L99.852,14.154z M101.365,14.563c0,1.578,0.398,2.904,1.197,3.979c0.797,1.075,1.91,1.612,3.34,1.612
		c1.402,0,2.506-0.537,3.307-1.612c0.805-1.074,1.203-2.4,1.203-3.979v-0.416c0-1.553-0.404-2.87-1.207-3.954
		c-0.809-1.083-1.916-1.625-3.33-1.625c-1.412,0-2.518,0.541-3.314,1.625c-0.799,1.083-1.195,2.401-1.195,3.954V14.563
		L101.365,14.563z"/>
	<path fill="#277DBE" d="M114.221,14.154c0-2.008,0.551-3.655,1.65-4.941s2.557-1.929,4.373-1.929c1.822,0,3.285,0.644,4.387,1.929
		c1.1,1.286,1.65,2.933,1.65,4.941v0.416c0,2.016-0.549,3.666-1.643,4.948c-1.098,1.281-2.555,1.923-4.369,1.923
		c-1.83,0-3.297-0.642-4.398-1.923c-1.1-1.281-1.648-2.93-1.648-4.948L114.221,14.154L114.221,14.154z M115.732,14.563
		c0,1.578,0.398,2.904,1.197,3.979c0.797,1.075,1.912,1.612,3.338,1.612c1.406,0,2.506-0.537,3.311-1.612
		c0.801-1.074,1.203-2.4,1.203-3.979v-0.416c0-1.553-0.404-2.87-1.211-3.954s-1.916-1.625-3.328-1.625s-2.518,0.541-3.316,1.625
		s-1.195,2.401-1.195,3.954L115.732,14.563L115.732,14.563z"/>
	<path fill="#277DBE" d="M140.41,14.733c0,2.041-0.461,3.67-1.385,4.885c-0.926,1.214-2.199,1.82-3.82,1.82
		c-0.957,0-1.795-0.18-2.514-0.542c-0.719-0.359-1.307-0.878-1.76-1.55v7.072h-1.512V7.538h1.273l0.189,2.116
		c0.453-0.756,1.039-1.34,1.758-1.752c0.717-0.412,1.564-0.617,2.539-0.617c1.637,0,2.92,0.653,3.844,1.96
		c0.924,1.307,1.385,3.047,1.385,5.224v0.264H140.41z M138.896,14.45c0-1.732-0.344-3.145-1.031-4.239
		c-0.691-1.094-1.697-1.64-3.027-1.64c-1.016,0-1.842,0.242-2.477,0.726c-0.637,0.484-1.111,1.113-1.432,1.886v6.562
		c0.348,0.749,0.844,1.337,1.494,1.767c0.65,0.427,1.465,0.643,2.439,0.643c1.318,0,2.322-0.496,3.004-1.489
		c0.686-0.993,1.029-2.309,1.029-3.95V14.45L138.896,14.45z"/>
	<path fill="#277DBE" d="M148.918,21.439c-1.705,0-3.123-0.63-4.252-1.891c-1.131-1.26-1.697-2.857-1.697-4.79v-0.692
		c0-1.95,0.562-3.567,1.684-4.853c1.123-1.286,2.48-1.929,4.076-1.929c1.672,0,2.988,0.53,3.945,1.588
		c0.959,1.059,1.438,2.471,1.438,4.236v1.285h-9.629v0.365c0,1.533,0.408,2.816,1.223,3.847c0.814,1.031,1.887,1.547,3.215,1.547
		c0.939,0,1.746-0.128,2.408-0.389c0.664-0.261,1.232-0.635,1.703-1.123l0.643,1.034c-0.512,0.54-1.162,0.969-1.947,1.287
		C150.941,21.279,150.002,21.439,148.918,21.439z M148.729,8.571c-1.117,0-2.055,0.425-2.809,1.276
		c-0.758,0.85-1.199,1.917-1.324,3.199l0.023,0.063h7.992V12.73c0-1.182-0.35-2.17-1.047-2.966
		C150.865,8.969,149.922,8.571,148.729,8.571z"/>
	<path fill="#277DBE" d="M163.375,8.834l-1.121-0.076c-0.951,0-1.73,0.268-2.34,0.801c-0.607,0.533-1.045,1.267-1.305,2.199v9.415
		h-1.514V7.538h1.324l0.189,2.268v0.151c0.395-0.84,0.924-1.495,1.588-1.966s1.453-0.707,2.371-0.707
		c0.193,0,0.381,0.015,0.561,0.044c0.18,0.03,0.33,0.061,0.447,0.094L163.375,8.834z"/>
</g>
</svg>
