<?xml version="1.0" encoding="utf-8"?>
<!-- Generator: Adobe Illustrator 16.0.0, SVG Export Plug-In . SVG Version: 6.00 Build 0)  -->
<!DOCTYPE svg PUBLIC "-//W3C//DTD SVG 1.1//EN" "http://www.w3.org/Graphics/SVG/1.1/DTD/svg11.dtd">
<svg version="1.1" id="Layer_1" xmlns="http://www.w3.org/2000/svg" xmlns:xlink="http://www.w3.org/1999/xlink" x="0px" y="0px"
	 width="200px" height="50px" viewBox="0 0 200 50" enable-background="new 0 0 200 50" xml:space="preserve">
<circle fill="#A5A6A5" cx="9.629" cy="38.631" r="2.952"/>
<circle fill="#8A2890" cx="34.949" cy="27.4" r="2.951"/>
<path fill="#A5A6A5" d="M26.106,35.104c-0.018,0.123-0.044,0.242-0.058,0.365c-0.041,0.53-0.121,1.059-0.231,1.581
	c-0.544,2.572-1.908,4.991-4.062,6.834c-0.397,0.339-0.81,0.648-1.235,0.929c-0.033,0.021-0.065,0.043-0.098,0.062
	c-0.171,0.109-0.343,0.216-0.519,0.314c-0.049,0.029-0.099,0.062-0.149,0.088c-0.186,0.104-0.377,0.205-0.567,0.3
	c-0.159,0.073-0.318,0.147-0.48,0.221c-0.033,0.013-0.066,0.028-0.099,0.041c-3.681,1.57-7.924,1.259-11.331-0.836
	c0.893-0.481,1.914-0.694,2.977-0.653c0.318,0.023,0.638,0.028,0.956,0.012c1.575-0.08,3.136-0.661,4.428-1.766
	c0.496-0.429,0.922-0.902,1.276-1.414c1.877-2.701,1.78-6.428-0.458-9.047c-2.237-2.615-5.904-3.293-8.865-1.861
	C7.033,30.546,6.497,30.891,6,31.314c-1.234,1.059-2.035,2.43-2.389,3.896c-0.105,0.438-0.17,0.879-0.195,1.325l-0.001,0.082
	c-0.147,0.971-0.507,1.863-1.079,2.611c-2.021-4.82-0.815-10.599,3.376-14.181c0.041-0.036,0.084-0.069,0.125-0.103
	c0.173-0.144,0.35-0.285,0.529-0.417c0.063-0.047,0.125-0.093,0.188-0.137c1.867-1.327,4-2.071,6.163-2.245
	c0.746-0.062,1.494-0.054,2.237,0.021l0.136,0.021c0.085,0,0.167-0.005,0.25-0.007c2.935,0.379,5.745,1.804,7.82,4.231
	C25.305,28.924,26.269,32.048,26.106,35.104z"/>
<path fill="#8A2890" d="M24.621,15.653c0.116-0.045,0.233-0.083,0.346-0.133c0.481-0.229,0.976-0.424,1.483-0.588
	c2.501-0.815,5.279-0.845,7.95,0.099c0.494,0.174,0.966,0.378,1.422,0.606c0.035,0.018,0.071,0.035,0.106,0.053
	c0.179,0.093,0.357,0.19,0.53,0.291c0.051,0.03,0.1,0.057,0.151,0.087c0.184,0.108,0.363,0.225,0.541,0.342
	c0.146,0.099,0.29,0.202,0.431,0.305c0.029,0.021,0.058,0.042,0.086,0.064c3.203,2.401,5.049,6.234,4.941,10.23
	c-0.864-0.532-1.56-1.311-2.053-2.251c-0.138-0.287-0.295-0.566-0.47-0.833c-0.858-1.322-2.142-2.386-3.744-2.951
	c-0.615-0.216-1.241-0.348-1.862-0.401c-3.278-0.273-6.456,1.673-7.604,4.921s0.1,6.761,2.82,8.605
	c0.515,0.352,1.083,0.644,1.699,0.857c1.531,0.541,3.121,0.549,4.568,0.121c0.431-0.129,0.848-0.293,1.247-0.495l0.072-0.041
	c0.915-0.354,1.87-0.492,2.804-0.371c-3.171,4.166-8.775,6.013-13.974,4.169c-0.052-0.018-0.101-0.035-0.15-0.059
	c-0.212-0.077-0.423-0.159-0.626-0.249c-0.071-0.03-0.14-0.062-0.211-0.095c-2.083-0.953-3.795-2.434-5.026-4.217
	c-0.425-0.615-0.793-1.269-1.099-1.949l-0.051-0.129c-0.041-0.067-0.088-0.141-0.131-0.209c-1.14-2.729-1.311-5.879-0.246-8.89
	C19.672,19.436,21.893,17.043,24.621,15.653z"/>
<circle fill="#277DBE" cx="10.201" cy="15.246" r="2.951"/>
<path fill="#277DBE" d="M26.106,16.124c-0.018-0.123-0.044-0.244-0.058-0.366c-0.041-0.53-0.121-1.058-0.231-1.579
	c-0.544-2.574-1.908-4.995-4.062-6.837c-0.397-0.338-0.81-0.646-1.235-0.927c-0.033-0.021-0.065-0.043-0.098-0.065
	c-0.171-0.11-0.343-0.212-0.519-0.313c-0.049-0.029-0.099-0.06-0.149-0.088c-0.186-0.104-0.377-0.203-0.567-0.297
	c-0.159-0.078-0.318-0.149-0.48-0.22c-0.033-0.015-0.066-0.029-0.099-0.043c-3.681-1.571-7.924-1.255-11.331,0.836
	C8.17,6.707,9.191,6.92,10.254,6.878c0.318-0.023,0.638-0.027,0.956-0.01c1.575,0.082,3.136,0.664,4.428,1.768
	c0.496,0.425,0.922,0.9,1.276,1.411c1.877,2.703,1.78,6.429-0.458,9.047c-2.237,2.619-5.904,3.294-8.865,1.861
	C7.033,20.681,6.497,20.335,6,19.912c-1.234-1.056-2.035-2.429-2.389-3.896c-0.105-0.437-0.17-0.881-0.195-1.326l-0.001-0.084
	c-0.147-0.969-0.507-1.865-1.079-2.614C0.315,16.819,1.521,22.598,5.712,26.18c0.041,0.033,0.084,0.066,0.125,0.102
	c0.173,0.146,0.35,0.283,0.529,0.42c0.063,0.046,0.125,0.093,0.188,0.136c1.867,1.329,4,2.073,6.163,2.245
	c0.746,0.062,1.494,0.051,2.237-0.021l0.136-0.021c0.085,0,0.167,0.005,0.25,0.008c2.935-0.38,5.745-1.805,7.82-4.233
	C25.305,22.302,26.269,19.182,26.106,16.124z"/>
<g enable-background="new    ">
	<path fill="#277DBE" d="M62.335,15.509h-7.152v19.328H53.47V15.509h-7.152v-1.457h16.017V15.509z"/>
	<path fill="#277DBE" d="M71.043,35.137c-1.932,0-3.538-0.714-4.818-2.142c-1.28-1.427-1.92-3.235-1.92-5.425v-0.784
		c0-2.208,0.635-4.04,1.906-5.496s2.81-2.185,4.618-2.185c1.894,0,3.383,0.6,4.468,1.799c1.085,1.199,1.627,2.798,1.627,4.797v1.456
		H66.018v0.413c0,1.736,0.461,3.189,1.385,4.357c0.923,1.168,2.136,1.752,3.64,1.752c1.065,0,1.975-0.146,2.727-0.439
		c0.751-0.297,1.394-0.721,1.927-1.271l0.728,1.172c-0.581,0.61-1.316,1.098-2.206,1.459C73.329,34.956,72.271,35.137,71.043,35.137
		z M70.829,20.562c-1.266,0-2.327,0.482-3.183,1.445s-1.356,2.171-1.499,3.623l0.029,0.071h9.05v-0.428
		c0-1.338-0.395-2.458-1.185-3.359S72.18,20.562,70.829,20.562z"/>
	<path fill="#277DBE" d="M86.032,33.682c1.132,0,2.131-0.322,2.998-0.968c0.866-0.646,1.299-1.541,1.299-2.688h1.513l0.028,0.086
		c0.047,1.428-0.523,2.621-1.713,3.584c-1.19,0.961-2.565,1.438-4.125,1.438c-2.104,0-3.729-0.721-4.875-2.161
		c-1.147-1.44-1.72-3.296-1.72-5.562v-0.601c0-2.246,0.576-4.092,1.727-5.539c1.151-1.446,2.77-2.17,4.854-2.17
		c1.694,0,3.105,0.5,4.233,1.499c1.127,0.999,1.672,2.312,1.634,3.94l-0.028,0.085H90.33c0-1.236-0.417-2.225-1.25-2.962
		c-0.833-0.737-1.854-1.106-3.062-1.106c-1.656,0-2.881,0.592-3.676,1.775c-0.795,1.183-1.192,2.674-1.192,4.472v0.598
		c0,1.826,0.395,3.33,1.185,4.507C83.124,33.092,84.356,33.682,86.032,33.682z"/>
	<path fill="#277DBE" d="M97.166,22.032c0.514-0.923,1.199-1.642,2.056-2.155c0.857-0.515,1.856-0.771,2.999-0.771
		c1.627,0,2.875,0.505,3.746,1.514c0.871,1.009,1.307,2.574,1.307,4.696v9.521h-1.713v-9.569c0-1.678-0.33-2.882-0.992-3.611
		c-0.659-0.729-1.57-1.095-2.731-1.095c-1.17,0-2.148,0.308-2.933,0.923c-0.785,0.615-1.363,1.433-1.735,2.453v10.899h-1.713v-22.27
		h1.713L97.166,22.032L97.166,22.032z"/>
	<path fill="#277DBE" d="M113.911,33.381h10.278v1.456h-11.991V14.052h1.713V33.381z"/>
	<path fill="#277DBE" d="M126.174,26.886c0-2.274,0.623-4.14,1.869-5.596c1.247-1.456,2.898-2.185,4.954-2.185
		c2.065,0,3.721,0.729,4.968,2.185c1.246,1.456,1.87,3.321,1.87,5.596v0.472c0,2.283-0.621,4.151-1.862,5.604
		c-1.242,1.451-2.892,2.178-4.947,2.178c-2.071,0-3.732-0.727-4.979-2.178c-1.246-1.451-1.869-3.318-1.869-5.604L126.174,26.886
		L126.174,26.886z M127.887,27.35c0,1.787,0.451,3.289,1.355,4.506c0.904,1.218,2.166,1.826,3.783,1.826
		c1.59,0,2.838-0.608,3.748-1.826c0.908-1.217,1.363-2.719,1.363-4.506v-0.471c0-1.759-0.457-3.251-1.371-4.478
		s-2.17-1.84-3.771-1.84s-2.854,0.613-3.755,1.84c-0.904,1.227-1.354,2.719-1.354,4.478v0.471H127.887z"/>
	<path fill="#277DBE" d="M142.447,26.886c0-2.274,0.623-4.14,1.869-5.596c1.248-1.456,2.896-2.185,4.955-2.185
		c2.062,0,3.721,0.729,4.967,2.185s1.869,3.321,1.869,5.596v0.472c0,2.283-0.619,4.151-1.861,5.604s-2.891,2.178-4.946,2.178
		c-2.075,0-3.735-0.727-4.981-2.178c-1.248-1.451-1.868-3.318-1.868-5.604L142.447,26.886L142.447,26.886z M144.16,27.35
		c0,1.787,0.451,3.289,1.355,4.506c0.902,1.218,2.166,1.826,3.781,1.826c1.592,0,2.838-0.608,3.747-1.826
		c0.908-1.217,1.363-2.719,1.363-4.506v-0.471c0-1.759-0.457-3.251-1.37-4.478c-0.914-1.227-2.17-1.84-3.771-1.84
		c-1.6,0-2.851,0.613-3.754,1.84c-0.904,1.227-1.354,2.719-1.354,4.478L144.16,27.35L144.16,27.35z"/>
	<path fill="#277DBE" d="M172.111,27.542c0,2.312-0.523,4.157-1.57,5.532s-2.489,2.062-4.325,2.062
		c-1.085,0-2.034-0.204-2.849-0.614c-0.812-0.405-1.479-0.994-1.991-1.756v8.01h-1.713V19.392h1.44l0.215,2.397
		c0.515-0.856,1.179-1.518,1.992-1.984c0.812-0.466,1.771-0.699,2.875-0.699c1.854,0,3.309,0.74,4.354,2.22
		c1.047,1.48,1.568,3.452,1.568,5.917v0.299H172.111z M170.398,27.221c0-1.962-0.394-3.562-1.172-4.801
		c-0.779-1.239-1.922-1.858-3.428-1.858c-1.15,0-2.087,0.274-2.806,0.822c-0.722,0.548-1.261,1.26-1.62,2.136v7.432
		c0.393,0.848,0.954,1.515,1.689,2.001c0.736,0.484,1.658,0.729,2.765,0.729c1.493,0,2.629-0.562,3.401-1.687
		c0.775-1.125,1.164-2.615,1.164-4.474v-0.301H170.398z"/>
	<path fill="#277DBE" d="M181.746,35.137c-1.932,0-3.537-0.714-4.816-2.142c-1.281-1.427-1.921-3.235-1.921-5.425v-0.784
		c0-2.208,0.636-4.04,1.905-5.496s2.811-2.185,4.618-2.185c1.894,0,3.384,0.6,4.469,1.799c1.084,1.199,1.627,2.798,1.627,4.797
		v1.456h-10.905v0.413c0,1.736,0.461,3.189,1.385,4.357c0.922,1.168,2.139,1.752,3.642,1.752c1.063,0,1.978-0.146,2.729-0.439
		c0.752-0.297,1.395-0.721,1.928-1.271l0.728,1.172c-0.579,0.61-1.315,1.098-2.204,1.459
		C184.035,34.955,182.975,35.137,181.746,35.137z M181.532,20.562c-1.267,0-2.327,0.482-3.185,1.445
		c-0.856,0.963-1.354,2.171-1.498,3.623l0.026,0.071h9.05v-0.428c0-1.338-0.395-2.458-1.185-3.359S182.884,20.562,181.532,20.562z"
		/>
	<path fill="#277DBE" d="M198.12,20.861l-1.271-0.086c-1.076,0-1.959,0.303-2.647,0.907c-0.69,0.604-1.183,1.435-1.478,2.491v10.663
		h-1.715V19.392h1.497l0.218,2.569v0.171c0.444-0.951,1.047-1.693,1.799-2.227c0.75-0.533,1.646-0.8,2.684-0.8
		c0.219,0,0.432,0.017,0.635,0.05c0.205,0.034,0.374,0.069,0.508,0.107L198.12,20.861z"/>
</g>
</svg>
