<?xml version="1.0" encoding="utf-8"?>
<!-- Generator: Adobe Illustrator 16.0.0, SVG Export Plug-In . SVG Version: 6.00 Build 0)  -->
<!DOCTYPE svg PUBLIC "-//W3C//DTD SVG 1.1//EN" "http://www.w3.org/Graphics/SVG/1.1/DTD/svg11.dtd">
<svg version="1.1" id="Layer_1" xmlns="http://www.w3.org/2000/svg" xmlns:xlink="http://www.w3.org/1999/xlink" x="0px" y="0px"
	 width="200px" height="50px" viewBox="0 0 200 50" enable-background="new 0 0 200 50" xml:space="preserve">
<circle fill="#A5A6A5" cx="9.629" cy="38.631" r="2.952"/>
<circle fill="#8A2890" cx="34.949" cy="27.4" r="2.951"/>
<path fill="#A5A6A5" d="M26.106,35.103c-0.018,0.123-0.044,0.243-0.058,0.366c-0.041,0.53-0.121,1.059-0.231,1.581
	c-0.544,2.572-1.908,4.991-4.062,6.834c-0.397,0.338-0.81,0.648-1.235,0.928c-0.033,0.021-0.065,0.043-0.098,0.063
	c-0.171,0.11-0.343,0.216-0.519,0.315c-0.049,0.03-0.099,0.062-0.149,0.087c-0.186,0.105-0.377,0.205-0.567,0.3
	c-0.159,0.074-0.318,0.148-0.48,0.221c-0.033,0.013-0.066,0.028-0.099,0.041c-3.681,1.57-7.924,1.258-11.331-0.836
	c0.893-0.481,1.914-0.694,2.977-0.653c0.318,0.023,0.638,0.028,0.956,0.011c1.575-0.082,3.136-0.664,4.428-1.766
	c0.496-0.428,0.922-0.902,1.276-1.414c1.877-2.701,1.78-6.427-0.458-9.046c-2.237-2.616-5.904-3.293-8.865-1.862
	C7.033,30.546,6.497,30.89,6,31.314c-1.234,1.059-2.035,2.43-2.389,3.897c-0.105,0.437-0.17,0.879-0.195,1.325l-0.001,0.082
	c-0.147,0.971-0.507,1.865-1.079,2.613C0.315,34.408,1.521,28.632,5.712,25.05c0.041-0.036,0.084-0.069,0.125-0.103
	c0.173-0.144,0.35-0.285,0.529-0.417c0.063-0.047,0.125-0.093,0.188-0.137c1.867-1.327,4-2.071,6.163-2.245
	c0.746-0.062,1.494-0.054,2.237,0.021l0.136,0.021c0.085,0,0.167-0.005,0.25-0.007c2.935,0.379,5.745,1.804,7.82,4.231
	C25.305,28.924,26.269,32.048,26.106,35.103z"/>
<path fill="#8A2890" d="M24.621,15.653c0.116-0.045,0.233-0.083,0.346-0.133c0.481-0.229,0.976-0.424,1.483-0.588
	c2.501-0.815,5.279-0.845,7.95,0.099c0.494,0.174,0.966,0.378,1.422,0.606c0.035,0.018,0.071,0.035,0.106,0.053
	c0.179,0.093,0.357,0.19,0.53,0.291c0.051,0.03,0.1,0.057,0.151,0.087c0.184,0.108,0.363,0.225,0.541,0.342
	c0.146,0.099,0.29,0.202,0.431,0.305c0.029,0.021,0.058,0.042,0.086,0.064c3.203,2.401,5.049,6.234,4.941,10.23
	c-0.864-0.533-1.56-1.311-2.053-2.251c-0.138-0.287-0.295-0.566-0.47-0.833c-0.858-1.322-2.142-2.386-3.744-2.951
	c-0.615-0.216-1.241-0.348-1.862-0.401c-3.278-0.273-6.456,1.673-7.604,4.921c-1.148,3.248,0.1,6.761,2.82,8.606
	c0.515,0.351,1.083,0.643,1.699,0.86c1.531,0.541,3.121,0.549,4.568,0.121c0.431-0.129,0.848-0.293,1.247-0.495l0.072-0.041
	c0.915-0.356,1.87-0.492,2.804-0.371c-3.171,4.166-8.775,6.009-13.974,4.169c-0.052-0.018-0.101-0.038-0.15-0.059
	c-0.212-0.077-0.423-0.159-0.626-0.249c-0.071-0.03-0.14-0.062-0.211-0.092c-2.083-0.954-3.795-2.433-5.026-4.216
	c-0.425-0.615-0.793-1.269-1.099-1.95l-0.051-0.128c-0.041-0.071-0.088-0.141-0.131-0.21c-1.14-2.731-1.311-5.878-0.246-8.889
	C19.672,19.436,21.893,17.043,24.621,15.653z"/>
<circle fill="#4F5DA3" cx="10.201" cy="15.246" r="2.951"/>
<path fill="#277DBE" d="M26.106,16.124c-0.018-0.123-0.044-0.244-0.058-0.366c-0.041-0.53-0.121-1.058-0.231-1.579
	c-0.544-2.574-1.908-4.995-4.062-6.837c-0.397-0.338-0.81-0.646-1.235-0.927c-0.033-0.021-0.065-0.043-0.098-0.065
	c-0.171-0.11-0.343-0.212-0.519-0.313c-0.049-0.029-0.099-0.06-0.149-0.088c-0.186-0.104-0.377-0.203-0.567-0.297
	c-0.159-0.078-0.318-0.149-0.48-0.22c-0.033-0.015-0.066-0.029-0.099-0.043c-3.681-1.571-7.924-1.255-11.331,0.836
	c0.893,0.482,1.914,0.695,2.977,0.653c0.318-0.023,0.638-0.027,0.956-0.01c1.575,0.082,3.136,0.664,4.428,1.768
	c0.496,0.425,0.922,0.9,1.276,1.411c1.877,2.703,1.78,6.429-0.458,9.047c-2.237,2.619-5.904,3.294-8.865,1.861
	C7.033,20.681,6.497,20.335,6,19.912c-1.234-1.056-2.035-2.429-2.389-3.896c-0.105-0.437-0.17-0.881-0.195-1.326l-0.001-0.084
	c-0.147-0.969-0.507-1.865-1.079-2.614C0.315,16.819,1.521,22.598,5.712,26.18c0.041,0.033,0.084,0.066,0.125,0.1
	c0.173,0.144,0.35,0.285,0.529,0.418c0.063,0.046,0.125,0.093,0.188,0.136c1.867,1.329,4,2.073,6.163,2.245
	c0.746,0.059,1.494,0.051,2.237-0.023l0.136-0.018c0.085,0,0.167,0.005,0.25,0.008c2.935-0.38,5.745-1.805,7.82-4.233
	C25.305,22.302,26.269,19.182,26.106,16.124z"/>
<text transform="matrix(1 0 0 1 45.6753 29.8369)" fill="#277DBE" font-family="'Roboto'" font-weight="300" font-size="29.2356">TechLooper</text>
<text transform="matrix(1 0 0 1 119.3301 45.9873)" fill="#252424" font-family="'Roboto'" font-weight="300" font-size="10">Career Analytics</text>
<text transform="matrix(1 0 0 1 171.8066 11.3145)" fill="#252424" font-family="'Roboto'" font-weight="400" font-size="13" font-style="italic">Beta</text>
</svg>
