<?xml version="1.0" encoding="utf-8"?>
<!-- Generator: Adobe Illustrator 16.0.0, SVG Export Plug-In . SVG Version: 6.00 Build 0)  -->
<!DOCTYPE svg PUBLIC "-//W3C//DTD SVG 1.1//EN" "http://www.w3.org/Graphics/SVG/1.1/DTD/svg11.dtd">
<svg version="1.1" id="Layer_1" xmlns="http://www.w3.org/2000/svg" xmlns:xlink="http://www.w3.org/1999/xlink" x="0px" y="0px"
	 width="150px" height="50px" viewBox="0 0 150 50" enable-background="new 0 0 150 50" xml:space="preserve">
<path fill="#00B9F2" d="M20.85,47.389c0.431-0.433,0.431-2.062,0.431-2.062l-0.254-1.021v-0.689l1.201-0.165l-0.343-3.017v-1.545
	l-0.775-3.353l0.344-1.281l-0.344-1.206l0.259-6.007c0,0,2.405-1.376,2.493-1.631c0.086-0.259-0.087-0.861-0.087-0.861l-0.941-0.944
	l0.081-2.233L22.57,21.03v-2.058l1.376-1.722c0,0,4.299,0.348,4.727,0.173c0.426-0.173,3.442-1.458,3.442-1.89
	c0-0.084-0.06-0.215-0.151-0.373c0.141-0.039,0.36-0.093,0.515-0.103c0.596-0.042,0.964-0.448,1.02-0.53
	c0.051-0.077,1.085-0.552,1.19-0.632c0.108-0.084,0.085-0.23-0.02-0.315c-0.108-0.08-0.716,0.271-0.716,0.271
	s0.969-0.908,1.027-1.116c0.034-0.146,0.06-0.23-0.107-0.27l0.02-0.237c-0.056-0.232-0.197-0.211-0.197-0.211
	s0.041-0.184-0.027-0.262c-0.165-0.188-0.452-0.031-0.452-0.031s-0.068,0.031-0.214-0.044c-0.225-0.114-1.044,0.322-1.209,0.451
	c-0.158,0.136-0.967,0.861-1.18,0.835c-0.22-0.027-0.272-0.964-0.272-0.964s-0.284-0.07-0.301,0.16
	c-0.005,0.189,0.088,1.183,0.088,1.183l-0.135,0.378l-0.035,0.103c-0.176-0.208-0.306-0.35-0.306-0.35
	c-0.515,0.514-0.774,1.371-2.324,1.458c-1.542,0.086-2.747,0.171-3.093-0.172c-0.341-0.345-1.376-1.889-1.463-2.146
	c-0.084-0.261-1.375-0.429-1.375-0.429l-1.118-1.116c0,0,0.76-1.241,0.098-2.164c-0.269-0.373-0.409-0.954-2.389-0.954
	c-1.978,0-1.092,0.523-1.35,0.866c-0.262,0.344-0.401,0.962-0.401,0.962L15.263,7.38l-0.156,0.134
	c-0.156-0.287-0.429-0.79-0.506-0.973c-0.073-0.169-0.668-0.351-1.067-0.458l-0.129-2.771l-2.07-0.699L9.71,2.686l-0.405,7.489
	l2.962,0.955h1.34V7.962l0.461,0.439l-0.007,0.007l1.117,1.975l0.602,0.688l-0.17,0.771l1.376,2.405l-0.602,1.889l0.088,0.944
	l-0.948,1.975c0,0-3.696,2.922-3.783,3.264c-0.09,0.34,1.543,1.028,1.801,1.028c0.26,0,0.26,0.862,0.26,0.862l-2.235,1.975
	l-2.064,1.459l-2.667,1.633c0,0-1.891,0.429-1.977,0.858c-0.087,0.427-0.602,1.113-0.602,1.113L2.971,31.16l-1.378-0.171
	c0,0-0.775,0.085-0.512,0.518c0.252,0.429,1.426,1.3,1.775,1.349c0.853,0.115,0.616,0.694,0.616,0.694l0.7,0.622l0.779-0.521
	c0,0,1.027,0,1.289-0.258c0.252-0.257,0.944-1.117,0.944-1.117s2.665-1.371,3.095-1.549c0.432-0.168,2.837-1.201,3.349-1.285
	c0.518-0.084,2.236-0.685,2.236-0.685s0.435,1.718,1.291,3.091c0.86,1.375,0.432,3.866,0.519,4.293
	c0.085,0.43,0.514,2.661,0.602,3.174c0.088,0.519,0.858,1.808,0.858,1.808s-0.172,2.237-0.085,2.492
	c0.02,0.063,0.038,0.059,0.051,0.016l-0.051,0.841v1.284c0,0-0.201,0.984,0.101,1.521"/>
<g>
	<path fill="#00B9F2" d="M35.048,30.076l-3.242-7.23H30.53l4.168,9.304h0.754l3.926-9.304h-1.249L35.048,30.076z M40.911,31.966
		h1.232v-9.12h-1.232V31.966z M40.911,20.168h1.232V18.25h-1.232V20.168z M48.146,22.665c-1.203-0.001-2.21,0.447-3.001,1.323
		c-0.795,0.876-1.19,1.991-1.187,3.313c-0.003,1.398,0.425,2.566,1.284,3.477c0.853,0.91,1.949,1.373,3.253,1.373h0.006
		c1.282,0.002,2.45-0.401,3.48-1.201l0.058-0.047v-1.444L51.8,29.646c-1.044,0.855-2.098,1.273-3.182,1.273
		c-0.921-0.002-1.705-0.324-2.383-0.984c-0.678-0.66-1.011-1.445-1.011-2.396c0-0.104,0.004-0.205,0.012-0.312h6.948v-0.146
		c0.003-1.345-0.387-2.43-1.169-3.224C50.239,23.066,49.265,22.665,48.146,22.665z M45.418,26.177
		c0.177-0.705,0.492-1.245,0.955-1.639c0.502-0.429,1.083-0.642,1.769-0.642c1.403,0.011,2.238,0.729,2.595,2.281H45.418z
		 M57.199,30.922c-0.59,0-0.895-0.139-0.979-0.32c-0.117-0.213-0.194-0.761-0.19-1.601v-5.105h2.498v-1.049H56.03v-2.93h-0.515
		l-0.712,0.92v2.01h-2.398v1.049h2.393v6.225c-0.003,0.622,0.209,1.137,0.634,1.495c0.42,0.354,0.944,0.534,1.552,0.534h0.008
		c0.624,0,1.252-0.164,1.889-0.492l0.082-0.036v-1.216l-0.208,0.097C58.157,30.781,57.631,30.922,57.199,30.922z M64.703,22.665
		c-1.14-0.002-2.085,0.501-2.82,1.469v-1.288h-1.23v9.12h1.23v-6.278c0.745-1.213,1.653-1.789,2.768-1.792
		c1.531,0.017,2.251,0.902,2.275,2.901v5.169h1.232v-5.53c0-1.158-0.308-2.086-0.943-2.76
		C66.592,23.001,65.741,22.665,64.703,22.665z M76.266,30.922c-0.007-0.002-0.009-0.002-0.011-0.002c-0.003,0,0,0-0.021-0.033
		c-0.021-0.035-0.041-0.131-0.039-0.275v-5.494c0.003-0.783-0.28-1.41-0.833-1.83c-0.554-0.416-1.244-0.62-2.076-0.62
		c-0.933,0-1.917,0.328-2.931,0.969l-0.064,0.043v1.349l0.23-0.182c0.954-0.737,1.828-1.094,2.621-1.094
		c1.264,0.022,1.799,0.521,1.822,1.668v0.987c-1.613,0.093-2.869,0.409-3.771,0.966c-0.934,0.57-1.415,1.393-1.415,2.396
		c0,0.652,0.248,1.232,0.74,1.69c0.491,0.459,1.106,0.692,1.804,0.69c0.894,0,1.785-0.336,2.666-0.985
		c0.043,0.315,0.092,0.54,0.175,0.69c0.114,0.196,0.323,0.295,0.563,0.295h0.021c0.453-0.006,1.05-0.334,1.883-0.944l0.054-0.045
		v-1.146l-0.229,0.174C76.797,30.693,76.338,30.936,76.266,30.922z M74.965,29.999c-0.809,0.722-1.581,1.063-2.333,1.063
		c-0.479,0-0.859-0.133-1.17-0.388c-0.305-0.258-0.444-0.551-0.449-0.915c0.005-0.67,0.358-1.21,1.13-1.668
		c0.716-0.41,1.595-0.615,2.651-0.615c0.015,0,0.021,0,0.034,0c0.044,0,0.089,0,0.138,0L74.965,29.999L74.965,29.999z
		 M91.367,23.695c-0.596-0.683-1.385-1.03-2.34-1.03c-1.213,0-2.237,0.676-3.062,1.971c-0.584-1.294-1.567-1.976-2.887-1.971
		c-1.099-0.002-2.015,0.503-2.72,1.477v-1.295h-1.232v9.12h1.232v-6.277c0.738-1.221,1.578-1.792,2.527-1.792
		c0.672,0.003,1.187,0.242,1.582,0.738c0.396,0.495,0.604,1.208,0.606,2.163l-0.005,5.169h1.236v-6.104
		c0.414-0.698,0.812-1.202,1.192-1.506c0.392-0.306,0.824-0.459,1.339-0.46c0.699,0.003,1.214,0.252,1.598,0.761
		c0.379,0.514,0.576,1.229,0.576,2.164v5.146h1.231V26.4C92.249,25.289,91.957,24.379,91.367,23.695z"/>
	<path fill="#00B9F2" d="M108.583,22.597l-3.646,9.229h-2.06l-2.053-5.028l-2.048,5.028h-2.059l-3.736-9.229h3.312l1.68,4.668
		l1.805-4.668h2.078l1.82,4.668l1.625-4.668H108.583z"/>
	<path fill="#00B9F2" d="M118.99,27.221c0,0.918-0.197,1.737-0.594,2.456c-0.399,0.724-0.998,1.287-1.791,1.705
		c-0.789,0.414-1.754,0.624-2.896,0.624c-1.137,0-2.104-0.21-2.896-0.624c-0.785-0.418-1.386-0.981-1.775-1.705
		c-0.4-0.719-0.6-1.538-0.6-2.456c0-0.695,0.114-1.33,0.332-1.896c0.222-0.567,0.557-1.071,1.004-1.511
		c0.451-0.437,1.004-0.774,1.658-1.01c0.661-0.233,1.414-0.35,2.277-0.35c0.865,0,1.631,0.117,2.305,0.352
		c0.661,0.242,1.215,0.572,1.652,1.007c0.438,0.429,0.766,0.932,0.986,1.501C118.88,25.891,118.99,26.525,118.99,27.221z
		 M115.584,27.221c0-0.734-0.158-1.31-0.479-1.722c-0.319-0.416-0.781-0.622-1.396-0.622c-0.604,0-1.062,0.206-1.381,0.622
		c-0.32,0.413-0.479,0.987-0.479,1.722c0,0.725,0.158,1.299,0.485,1.723c0.312,0.43,0.776,0.638,1.374,0.638
		c0.613,0,1.075-0.208,1.396-0.632C115.426,28.529,115.584,27.953,115.584,27.221z"/>
	<path fill="#00B9F2" d="M128.35,23.114l-1.201,3.263c-0.496-0.473-0.996-0.704-1.51-0.704c-0.453,0-0.856,0.153-1.188,0.47
		c-0.34,0.309-0.657,0.881-0.969,1.722v3.963h-3.267v-9.229h3.267v2.242c0.207-0.548,0.569-1.084,1.093-1.607
		c0.519-0.521,1.128-0.78,1.827-0.78c0.369,0,0.695,0.05,0.968,0.157C127.646,22.721,127.969,22.885,128.35,23.114z"/>
	<path fill="#00B9F2" d="M140.098,31.825h-4.144l-3.546-4.382v4.382h-3.297V19.263h3.297v7.385l3.24-4.052h3.912l-3.606,4.304
		L140.098,31.825z"/>
	<path fill="#00B9F2" d="M147.835,29.134c0,0.849-0.31,1.543-0.928,2.071c-0.615,0.537-1.535,0.801-2.759,0.801
		c-0.683,0-1.283-0.062-1.817-0.188c-0.53-0.123-1.113-0.305-1.737-0.543v-2.332c0.551,0.32,1.021,0.56,1.432,0.718
		c0.398,0.165,0.845,0.248,1.328,0.248c0.812,0,1.223-0.224,1.223-0.667c0-0.146-0.061-0.279-0.18-0.4
		c-0.117-0.113-0.321-0.25-0.617-0.395c-0.285-0.146-0.68-0.322-1.17-0.526c-0.604-0.269-1.111-0.624-1.541-1.071
		c-0.418-0.441-0.629-0.992-0.629-1.637c0-0.458,0.142-0.899,0.418-1.321c0.287-0.424,0.711-0.772,1.276-1.04
		c0.567-0.266,1.248-0.399,2.05-0.399c0.197,0,0.445,0.009,0.739,0.04c0.302,0.025,0.679,0.098,1.134,0.214
		c0.455,0.117,0.892,0.281,1.303,0.495v2.271c-0.195-0.115-0.357-0.208-0.484-0.292c-0.133-0.077-0.305-0.16-0.525-0.258
		c-0.217-0.099-0.473-0.184-0.765-0.258c-0.295-0.077-0.592-0.114-0.901-0.114c-0.371,0-0.625,0.071-0.771,0.214
		c-0.141,0.149-0.213,0.292-0.213,0.434c0,0.15,0.072,0.289,0.225,0.417c0.145,0.13,0.465,0.288,0.967,0.479
		c0.728,0.273,1.309,0.562,1.737,0.854c0.438,0.289,0.747,0.607,0.933,0.957C147.75,28.251,147.835,28.658,147.835,29.134z"/>
</g>
<g enable-background="new    ">
	<path fill="#F7941E" d="M115.532,42.364l0.476-3.61c0.09-0.635,0.238-1.615,0.367-2.261h-0.039
		c-0.309,0.674-0.675,1.468-1.041,2.151l-1.984,3.68h-0.635l-0.496-3.6c-0.099-0.774-0.168-1.549-0.207-2.231h-0.021
		c-0.148,0.614-0.356,1.626-0.516,2.261l-0.912,3.61h-0.773l1.736-6.685h1.051l0.525,3.838c0.069,0.564,0.147,1.17,0.157,1.666h0.03
		c0.208-0.496,0.496-1.092,0.784-1.646l2.071-3.857h1.071l-0.853,6.686L115.532,42.364L115.532,42.364z"/>
	<path fill="#F7941E" d="M122.236,39.458c0,1.479-1.051,3.017-2.657,3.017c-1.2,0-1.874-0.894-1.874-1.975
		c0-1.577,1.102-3.045,2.658-3.045C121.662,37.455,122.236,38.438,122.236,39.458z M118.559,40.471c0,0.782,0.426,1.348,1.129,1.348
		c0.974,0,1.707-1.248,1.707-2.369c0-0.557-0.258-1.34-1.121-1.34C119.242,38.109,118.548,39.369,118.559,40.471z"/>
	<path fill="#F7941E" d="M123.884,37.562l0.417,2.738c0.068,0.545,0.129,0.912,0.148,1.18h0.029c0.1-0.258,0.229-0.574,0.506-1.121
		l1.468-2.797h0.903l-2.668,4.802h-0.814l-0.832-4.802H123.884z"/>
	<path fill="#F7941E" d="M130.787,42.087c-0.357,0.208-0.943,0.377-1.588,0.377c-1.27,0-1.824-0.862-1.824-1.925
		c0-1.448,1.07-3.084,2.618-3.084c0.913,0,1.407,0.545,1.407,1.229c0,1.26-1.418,1.598-3.192,1.567
		c-0.04,0.208-0.011,0.653,0.099,0.912c0.189,0.427,0.576,0.646,1.071,0.646c0.565,0,0.992-0.18,1.29-0.338L130.787,42.087z
		 M129.874,38.1c-0.784,0-1.368,0.765-1.567,1.519c1.289,0.01,2.301-0.159,2.301-0.903C130.607,38.316,130.311,38.1,129.874,38.1z"
		/>
	<path fill="#F7941E" d="M135.734,35.68l-0.752,3.957c-0.051,0.277-0.08,0.565-0.08,0.844c0,0.854,0.496,1.289,1.24,1.289
		c0.912,0,1.586-0.615,1.863-2.112l0.764-3.978h0.823l-0.764,3.997c-0.388,1.993-1.379,2.798-2.797,2.798
		c-1.103,0-1.954-0.597-1.954-1.975c0-0.288,0.029-0.615,0.089-0.923l0.744-3.897H135.734z"/>
	<path fill="#F7941E" d="M139.355,44.328l0.963-5.059c0.099-0.576,0.197-1.221,0.268-1.707h0.754l-0.14,0.903h0.021
		c0.437-0.625,1.07-1.012,1.725-1.012c1.043,0,1.479,0.853,1.479,1.735c0,1.687-1.21,3.283-2.807,3.283
		c-0.517,0-0.854-0.109-1.041-0.22h-0.021l-0.388,2.073h-0.813V44.328z M140.705,41.561c0.207,0.17,0.525,0.27,0.912,0.27
		c1.061,0,1.953-1.319,1.953-2.579c0-0.506-0.229-1.11-0.922-1.11c-0.646,0-1.459,0.743-1.707,2.082L140.705,41.561z"/>
	<path fill="#F7941E" d="M144.939,41.898c0-0.367,0.258-0.666,0.625-0.666c0.326,0,0.545,0.259,0.545,0.586
		c0,0.367-0.258,0.654-0.625,0.654C145.158,42.475,144.939,42.216,144.939,41.898z M145.465,40.439l0.783-4.76h0.934l-1.052,4.76
		H145.465z"/>
</g>
<g enable-background="new    ">
	<path fill="#8C8C8C" d="M87.872,13.307v3.545h-0.697V8.32h2.937c0.895,0,1.587,0.228,2.076,0.683
		c0.49,0.455,0.735,1.058,0.735,1.808c0,0.758-0.245,1.363-0.735,1.816c-0.489,0.453-1.183,0.68-2.076,0.68H87.872z M87.872,12.709
		h2.237c0.703,0,1.231-0.179,1.586-0.536c0.354-0.357,0.529-0.808,0.529-1.351c0-0.547-0.176-1.001-0.526-1.362
		s-0.882-0.542-1.589-0.542h-2.237V12.709z"/>
	<path fill="#8C8C8C" d="M94.014,13.588c0-0.934,0.256-1.699,0.768-2.297s1.189-0.896,2.033-0.896c0.848,0,1.526,0.299,2.039,0.896
		c0.512,0.597,0.768,1.363,0.768,2.297v0.193c0,0.938-0.255,1.704-0.766,2.3c-0.51,0.596-1.187,0.894-2.029,0.894
		c-0.852,0-1.533-0.298-2.045-0.894c-0.512-0.596-0.768-1.362-0.768-2.3V13.588z M94.716,13.778c0,0.733,0.187,1.35,0.558,1.85
		c0.371,0.499,0.889,0.749,1.553,0.749c0.652,0,1.165-0.25,1.538-0.749c0.372-0.5,0.56-1.116,0.56-1.85v-0.193
		c0-0.722-0.188-1.334-0.562-1.838c-0.375-0.503-0.891-0.755-1.547-0.755c-0.655,0-1.17,0.252-1.541,0.755
		c-0.371,0.504-0.557,1.116-0.557,1.838L94.716,13.778L94.716,13.778z"/>
	<path fill="#8C8C8C" d="M102.45,14.795l0.239,1.131h0.035l0.299-1.131l1.349-4.283h0.604l1.348,4.283l0.305,1.16h0.035l0.264-1.16
		l1.154-4.283h0.727l-1.846,6.34h-0.598l-1.406-4.336l-0.275-1.096h-0.035l-0.28,1.096l-1.384,4.336h-0.604l-1.84-6.34h0.727
		L102.45,14.795z"/>
	<path fill="#8C8C8C" d="M112.546,16.975c-0.793,0-1.452-0.293-1.978-0.879c-0.526-0.586-0.789-1.328-0.789-2.227v-0.322
		c0-0.906,0.262-1.658,0.783-2.256c0.521-0.598,1.152-0.896,1.896-0.896c0.776,0,1.39,0.246,1.834,0.738
		c0.444,0.492,0.668,1.148,0.668,1.969V13.7h-4.478v0.17c0,0.713,0.189,1.31,0.568,1.789s0.877,0.719,1.494,0.719
		c0.438,0,0.811-0.061,1.119-0.182c0.309-0.121,0.572-0.295,0.791-0.521l0.299,0.48c-0.238,0.251-0.54,0.45-0.904,0.599
		C113.484,16.9,113.05,16.975,112.546,16.975z M112.458,10.992c-0.521,0-0.955,0.197-1.308,0.593
		c-0.352,0.396-0.557,0.892-0.614,1.487l0.012,0.029h3.716v-0.176c0-0.549-0.162-1.009-0.486-1.379S113.014,10.992,112.458,10.992z"
		/>
	<path fill="#8C8C8C" d="M119.268,11.115l-0.521-0.035c-0.441,0-0.805,0.124-1.087,0.372c-0.283,0.248-0.485,0.589-0.606,1.022
		v4.377h-0.703v-6.34h0.615l0.088,1.055v0.07c0.184-0.391,0.43-0.695,0.738-0.914c0.309-0.219,0.676-0.328,1.102-0.328
		c0.09,0,0.178,0.007,0.262,0.021s0.152,0.028,0.207,0.044L119.268,11.115z"/>
	<path fill="#8C8C8C" d="M122.812,16.975c-0.793,0-1.453-0.293-1.979-0.879c-0.525-0.586-0.788-1.328-0.788-2.227v-0.322
		c0-0.906,0.261-1.658,0.782-2.256s1.152-0.896,1.896-0.896c0.776,0,1.389,0.246,1.834,0.738c0.444,0.492,0.668,1.148,0.668,1.969
		V13.7h-4.478v0.17c0,0.713,0.188,1.31,0.567,1.789s0.877,0.719,1.494,0.719c0.438,0,0.812-0.061,1.119-0.182
		c0.309-0.121,0.572-0.295,0.791-0.521l0.299,0.48c-0.237,0.251-0.539,0.45-0.904,0.599C123.75,16.9,123.314,16.975,122.812,16.975z
		 M122.725,10.992c-0.521,0-0.955,0.197-1.308,0.593s-0.558,0.892-0.615,1.487l0.013,0.029h3.715v-0.176
		c0-0.549-0.162-1.009-0.486-1.379S123.277,10.992,122.725,10.992z"/>
	<path fill="#8C8C8C" d="M126.339,13.734c0-1.012,0.214-1.821,0.642-2.429c0.429-0.608,1.024-0.911,1.791-0.911
		c0.44,0,0.824,0.094,1.147,0.281c0.324,0.187,0.595,0.453,0.81,0.797V7.711h0.696v9.141h-0.62l-0.06-0.92
		c-0.211,0.336-0.481,0.594-0.813,0.773c-0.332,0.179-0.724,0.27-1.173,0.27c-0.758,0-1.351-0.282-1.778-0.847
		c-0.426-0.565-0.642-1.321-0.642-2.271V13.734L126.339,13.734z M127.042,13.858c0,0.769,0.153,1.381,0.46,1.836
		c0.307,0.455,0.77,0.683,1.387,0.683c0.452,0,0.83-0.102,1.133-0.306c0.304-0.204,0.539-0.487,0.707-0.848v-2.989
		c-0.16-0.369-0.388-0.668-0.681-0.897s-0.676-0.345-1.147-0.345c-0.617,0-1.082,0.254-1.393,0.762
		c-0.311,0.509-0.466,1.169-0.466,1.98V13.858L127.042,13.858z"/>
	<path fill="#8C8C8C" d="M141.32,13.857c0,0.949-0.215,1.706-0.645,2.271s-1.021,0.847-1.775,0.847c-0.465,0-0.864-0.093-1.2-0.278
		c-0.337-0.185-0.607-0.452-0.813-0.8l-0.076,0.955h-0.604V7.711h0.703v3.797c0.211-0.355,0.479-0.63,0.809-0.823
		s0.72-0.29,1.173-0.29c0.762,0,1.356,0.304,1.786,0.911c0.431,0.607,0.646,1.417,0.646,2.429v0.122H141.32z M140.611,13.734
		c0-0.812-0.155-1.472-0.469-1.98c-0.312-0.508-0.774-0.762-1.389-0.762c-0.488,0-0.882,0.122-1.181,0.365
		c-0.3,0.243-0.521,0.555-0.665,0.936v2.878c0.156,0.368,0.39,0.662,0.699,0.88c0.311,0.218,0.697,0.326,1.158,0.326
		c0.612,0,1.073-0.228,1.383-0.683c0.309-0.455,0.463-1.067,0.463-1.836V13.734L140.611,13.734z"/>
	<path fill="#8C8C8C" d="M144.689,15.135l0.224,0.756h0.035l1.916-5.379h0.784l-2.754,7.354c-0.164,0.43-0.377,0.795-0.639,1.096
		c-0.262,0.301-0.645,0.451-1.148,0.451c-0.082,0-0.182-0.009-0.299-0.026c-0.117-0.017-0.203-0.036-0.258-0.056l0.082-0.586
		c0.047,0.008,0.122,0.017,0.227,0.026c0.104,0.009,0.179,0.015,0.226,0.015c0.306,0,0.549-0.108,0.731-0.325
		c0.184-0.217,0.341-0.495,0.47-0.835l0.334-0.855l-2.449-6.258h0.779L144.689,15.135z"/>
</g>
</svg>
