<?xml version="1.0" encoding="utf-8"?>
<!-- Generator: Adobe Illustrator 16.0.0, SVG Export Plug-In . SVG Version: 6.00 Build 0)  -->
<!DOCTYPE svg PUBLIC "-//W3C//DTD SVG 1.1//EN" "http://www.w3.org/Graphics/SVG/1.1/DTD/svg11.dtd">
<svg version="1.1" id="Layer_1" xmlns="http://www.w3.org/2000/svg" xmlns:xlink="http://www.w3.org/1999/xlink" x="0px" y="0px"
	 width="150px" height="50px" viewBox="0 0 150 50" enable-background="new 0 0 150 50" xml:space="preserve">
<path fill="#00B9F2" d="M20.85,47.388c0.431-0.432,0.431-2.063,0.431-2.063l-0.254-1.021v-0.69l1.201-0.165l-0.343-3.016v-1.545
	l-0.775-3.352l0.344-1.281l-0.344-1.206l0.259-6.007c0,0,2.405-1.376,2.493-1.631c0.086-0.259-0.087-0.861-0.087-0.861l-0.941-0.944
	l0.081-2.233L22.57,21.03v-2.058l1.376-1.722c0,0,4.299,0.348,4.727,0.173c0.426-0.173,3.442-1.458,3.442-1.89
	c0-0.084-0.06-0.215-0.151-0.373c0.141-0.039,0.36-0.093,0.515-0.103c0.596-0.042,0.964-0.448,1.02-0.53
	c0.051-0.077,1.085-0.552,1.19-0.632c0.108-0.084,0.085-0.23-0.02-0.315c-0.108-0.08-0.716,0.271-0.716,0.271
	s0.969-0.908,1.027-1.116c0.034-0.146,0.06-0.23-0.107-0.27l0.02-0.237c-0.056-0.232-0.197-0.211-0.197-0.211
	s0.041-0.184-0.027-0.262c-0.165-0.188-0.452-0.031-0.452-0.031s-0.068,0.031-0.214-0.044c-0.225-0.114-1.044,0.322-1.209,0.451
	c-0.158,0.136-0.967,0.861-1.18,0.835c-0.22-0.027-0.272-0.964-0.272-0.964s-0.284-0.07-0.301,0.16
	c-0.005,0.189,0.088,1.183,0.088,1.183l-0.135,0.378l-0.035,0.103c-0.176-0.208-0.306-0.35-0.306-0.35
	c-0.515,0.514-0.774,1.371-2.324,1.458c-1.542,0.086-2.747,0.171-3.093-0.172c-0.341-0.345-1.376-1.889-1.463-2.146
	c-0.084-0.261-1.375-0.429-1.375-0.429l-1.118-1.116c0,0,0.76-1.241,0.098-2.164c-0.269-0.373-0.409-0.954-2.389-0.954
	c-1.978,0-1.092,0.523-1.35,0.866c-0.262,0.344-0.401,0.962-0.401,0.962L15.263,7.38l-0.156,0.134
	c-0.156-0.287-0.429-0.79-0.506-0.973c-0.073-0.169-0.668-0.351-1.067-0.458l-0.129-2.771l-2.07-0.699L9.71,2.686l-0.405,7.489
	l2.962,0.955h1.34V7.962l0.461,0.439l-0.007,0.007l1.117,1.975l0.602,0.688l-0.17,0.771l1.376,2.405l-0.602,1.889l0.088,0.944
	l-0.948,1.975c0,0-3.696,2.922-3.783,3.264c-0.09,0.34,1.543,1.028,1.801,1.028c0.26,0,0.26,0.862,0.26,0.862l-2.235,1.974
	l-2.064,1.46l-2.667,1.632c0,0-1.891,0.428-1.977,0.859c-0.087,0.426-0.602,1.113-0.602,1.113L2.971,31.16l-1.378-0.171
	c0,0-0.775,0.085-0.512,0.518c0.252,0.428,1.426,1.299,1.775,1.349c0.853,0.114,0.616,0.694,0.616,0.694l0.7,0.622l0.779-0.521
	c0,0,1.027,0,1.289-0.258c0.252-0.257,0.944-1.117,0.944-1.117s2.665-1.372,3.095-1.55c0.432-0.167,2.837-1.2,3.349-1.284
	c0.518-0.085,2.236-0.685,2.236-0.685s0.435,1.717,1.291,3.091c0.86,1.375,0.432,3.866,0.519,4.292
	c0.085,0.43,0.514,2.662,0.602,3.175c0.088,0.517,0.858,1.806,0.858,1.806s-0.172,2.238-0.085,2.492
	c0.02,0.065,0.038,0.059,0.051,0.016l-0.051,0.84v1.285c0,0-0.201,0.984,0.101,1.522"/>
<g>
	<path fill="#00B9F2" d="M35.048,30.076l-3.242-7.23H30.53l4.168,9.304h0.754l3.926-9.304h-1.249L35.048,30.076z M40.911,31.966
		h1.232v-9.12h-1.232V31.966z M40.911,20.168h1.232V18.25h-1.232V20.168z M48.146,22.665c-1.203-0.001-2.21,0.447-3.001,1.323
		c-0.795,0.876-1.19,1.99-1.187,3.313c-0.003,1.398,0.425,2.566,1.284,3.476c0.853,0.911,1.949,1.373,3.253,1.373h0.006
		c1.282,0.002,2.45-0.402,3.48-1.202l0.058-0.046v-1.445l-0.239,0.189c-1.044,0.857-2.098,1.275-3.182,1.275
		c-0.921-0.002-1.705-0.326-2.383-0.986c-0.678-0.659-1.011-1.445-1.011-2.395c0-0.103,0.004-0.205,0.012-0.312h6.948v-0.145
		c0.003-1.345-0.387-2.43-1.169-3.224C50.239,23.066,49.265,22.665,48.146,22.665z M45.418,26.177
		c0.177-0.705,0.492-1.245,0.955-1.639c0.502-0.429,1.083-0.642,1.769-0.642c1.403,0.011,2.238,0.729,2.595,2.281H45.418z
		 M57.199,30.922c-0.59,0-0.895-0.139-0.979-0.32c-0.117-0.214-0.194-0.761-0.19-1.601v-5.105h2.498v-1.049H56.03v-2.93h-0.515
		l-0.712,0.92v2.01h-2.398v1.049h2.393v6.225c-0.003,0.622,0.209,1.137,0.634,1.495c0.42,0.354,0.944,0.535,1.552,0.535h0.008
		c0.624,0,1.252-0.165,1.889-0.493l0.082-0.036v-1.216l-0.208,0.097C58.157,30.781,57.631,30.922,57.199,30.922z M64.703,22.665
		c-1.14-0.002-2.085,0.501-2.82,1.469v-1.288h-1.23v9.12h1.23v-6.278c0.745-1.215,1.653-1.789,2.768-1.792
		c1.531,0.017,2.251,0.902,2.275,2.901v5.169h1.232v-5.53c0-1.158-0.308-2.088-0.943-2.76
		C66.592,23.001,65.741,22.665,64.703,22.665z M76.266,30.922c-0.007-0.002-0.009-0.002-0.011-0.002c-0.003,0,0,0-0.021-0.033
		c-0.02-0.036-0.041-0.131-0.039-0.275v-5.496c0.003-0.783-0.28-1.41-0.832-1.83c-0.554-0.416-1.244-0.62-2.076-0.62
		c-0.933,0-1.917,0.328-2.931,0.969l-0.064,0.043v1.349l0.23-0.182c0.954-0.737,1.828-1.094,2.621-1.094
		c1.264,0.022,1.799,0.521,1.822,1.668v0.987c-1.613,0.093-2.869,0.411-3.771,0.966c-0.934,0.572-1.415,1.391-1.415,2.396
		c0,0.653,0.248,1.233,0.74,1.691c0.491,0.459,1.106,0.693,1.804,0.691c0.894,0,1.785-0.335,2.666-0.986
		c0.043,0.316,0.092,0.54,0.175,0.692c0.114,0.196,0.323,0.294,0.564,0.294h0.02c0.453-0.006,1.05-0.333,1.883-0.945l0.053-0.045
		v-1.147l-0.229,0.175C76.797,30.694,76.338,30.936,76.266,30.922z M74.965,29.999c-0.809,0.721-1.581,1.063-2.333,1.063
		c-0.479,0-0.859-0.133-1.17-0.386c-0.305-0.258-0.444-0.551-0.449-0.915c0.005-0.67,0.358-1.21,1.13-1.668
		c0.716-0.412,1.595-0.617,2.651-0.617c0.015,0,0.021,0,0.034,0c0.044,0,0.089,0,0.138,0V29.999z M91.367,23.695
		c-0.596-0.683-1.385-1.03-2.339-1.03c-1.214,0-2.238,0.676-3.061,1.971c-0.584-1.294-1.569-1.976-2.887-1.971
		c-1.097-0.002-2.014,0.503-2.719,1.477v-1.295h-1.233v9.12h1.233v-6.278c0.738-1.22,1.578-1.791,2.527-1.792
		c0.673,0.003,1.186,0.242,1.583,0.738c0.396,0.495,0.602,1.208,0.606,2.163l-0.005,5.169h1.236v-6.104
		c0.414-0.698,0.814-1.202,1.194-1.506c0.39-0.306,0.824-0.459,1.339-0.46c0.699,0.003,1.214,0.252,1.597,0.761
		c0.379,0.514,0.575,1.229,0.575,2.164v5.146h1.233v-5.57C92.249,25.289,91.957,24.379,91.367,23.695z"/>
	<path fill="#00B9F2" d="M108.583,22.597l-3.646,9.229h-2.058l-2.053-5.028l-2.047,5.028h-2.058l-3.736-9.229h3.312l1.68,4.668
		l1.804-4.668h2.078l1.82,4.668l1.626-4.668H108.583z"/>
	<path fill="#00B9F2" d="M118.99,27.221c0,0.917-0.197,1.737-0.594,2.456c-0.399,0.723-0.997,1.287-1.791,1.705
		c-0.789,0.414-1.754,0.624-2.895,0.624c-1.137,0-2.105-0.21-2.898-0.624c-0.785-0.418-1.384-0.982-1.775-1.705
		c-0.4-0.719-0.6-1.539-0.6-2.456c0-0.695,0.116-1.33,0.332-1.897c0.222-0.567,0.557-1.071,1.005-1.511
		c0.451-0.437,1.003-0.774,1.658-1.01c0.662-0.233,1.414-0.35,2.278-0.35c0.865,0,1.631,0.117,2.303,0.352
		c0.663,0.242,1.216,0.572,1.654,1.007c0.438,0.429,0.765,0.932,0.987,1.501C118.88,25.89,118.99,26.525,118.99,27.221z
		 M115.584,27.221c0-0.734-0.158-1.31-0.479-1.722c-0.319-0.416-0.781-0.622-1.395-0.622c-0.602,0-1.061,0.206-1.381,0.622
		c-0.32,0.413-0.48,0.988-0.48,1.722c0,0.725,0.16,1.299,0.487,1.723c0.313,0.428,0.777,0.636,1.374,0.636
		c0.613,0,1.075-0.208,1.395-0.632C115.426,28.529,115.584,27.953,115.584,27.221z"/>
	<path fill="#00B9F2" d="M128.35,23.114l-1.202,3.263c-0.495-0.472-0.996-0.704-1.509-0.704c-0.453,0-0.858,0.153-1.188,0.469
		c-0.339,0.308-0.657,0.881-0.969,1.721v3.963h-3.265v-9.229h3.265v2.242c0.208-0.548,0.571-1.084,1.093-1.607
		c0.519-0.521,1.128-0.78,1.828-0.78c0.368,0,0.694,0.05,0.967,0.157C127.646,22.721,127.969,22.885,128.35,23.114z"/>
	<path fill="#00B9F2" d="M140.097,31.825h-4.143l-3.546-4.381v4.381h-3.296V19.263h3.296v7.385l3.24-4.052h3.912l-3.606,4.305
		L140.097,31.825z"/>
	<path fill="#00B9F2" d="M147.835,29.134c0,0.848-0.31,1.543-0.928,2.071c-0.615,0.537-1.535,0.801-2.758,0.801
		c-0.682,0-1.284-0.063-1.818-0.188c-0.53-0.123-1.113-0.305-1.737-0.543v-2.331c0.551,0.319,1.02,0.559,1.431,0.717
		c0.399,0.165,0.844,0.248,1.329,0.248c0.811,0,1.221-0.224,1.221-0.667c0-0.146-0.059-0.279-0.178-0.4
		c-0.118-0.113-0.323-0.25-0.618-0.395c-0.286-0.146-0.68-0.322-1.17-0.526c-0.603-0.268-1.112-0.624-1.54-1.071
		c-0.419-0.443-0.63-0.992-0.63-1.637c0-0.458,0.141-0.899,0.419-1.321c0.287-0.424,0.71-0.772,1.276-1.04
		c0.567-0.266,1.248-0.399,2.05-0.399c0.197,0,0.445,0.009,0.739,0.04c0.301,0.025,0.679,0.098,1.133,0.214
		c0.456,0.117,0.891,0.281,1.303,0.495v2.271c-0.196-0.115-0.358-0.208-0.485-0.292c-0.133-0.077-0.304-0.16-0.526-0.258
		c-0.216-0.099-0.472-0.184-0.764-0.258c-0.295-0.077-0.592-0.114-0.902-0.114c-0.372,0-0.625,0.071-0.771,0.214
		c-0.139,0.149-0.213,0.292-0.213,0.434c0,0.15,0.074,0.289,0.225,0.417c0.144,0.13,0.463,0.289,0.966,0.479
		c0.727,0.275,1.308,0.562,1.738,0.854c0.438,0.289,0.747,0.608,0.931,0.957C147.75,28.251,147.835,28.658,147.835,29.134z"/>
</g>
<text transform="matrix(1 0 0 1 102.6211 42.3643)" fill="#F7941E" font-family="'MyriadPro-It'" font-size="9.9183">Move Up!</text>
<text transform="matrix(1 0 0 1 86.0557 16.8511)" fill="#262525" font-family="'Roboto'" font-weight="300" font-size="12">Powered by</text>
</svg>
